<svg xmlns="http://www.w3.org/2000/svg" version="1.1" xmlns:xlink="http://www.w3.org/1999/xlink" xmlns:svgjs="http://svgjs.com/svgjs" width="1440" height="560" preserveAspectRatio="none" viewBox="0 0 1440 560"><g mask="url(&quot;#SvgjsMask1101&quot;)" fill="none"><rect width="1440" height="560" x="0" y="0" fill="rgba(68, 68, 68, 1)"></rect><path d="M42.66 324.22L69.51 339.72L69.51 370.72L42.66 386.22L15.81 370.72L15.81 339.72zM15.81 370.72L42.66 386.22L42.66 417.22L15.81 432.72L-11.04 417.22L-11.04 386.22zM15.81 463.72L42.66 479.22L42.66 510.22L15.81 525.72L-11.04 510.22L-11.04 479.22zM15.81 556.72L42.66 572.22L42.66 603.22L15.81 618.72L-11.04 603.22L-11.04 572.22zM69.51 -1.28L96.35 14.22L96.35 45.22L69.51 60.72L42.66 45.22L42.66 14.22zM69.51 91.72L96.35 107.22L96.35 138.22L69.51 153.72L42.66 138.22L42.66 107.22zM96.35 231.22L123.2 246.72L123.2 277.72L96.35 293.22L69.51 277.72L69.51 246.72zM96.35 417.22L123.2 432.72L123.2 463.72L96.35 479.22L69.51 463.72L69.51 432.72zM69.51 463.72L96.35 479.22L96.35 510.22L69.51 525.72L42.66 510.22L42.66 479.22zM123.2 91.72L150.05 107.22L150.05 138.22L123.2 153.72L96.35 138.22L96.35 107.22zM123.2 184.72L150.05 200.22L150.05 231.22L123.2 246.72L96.35 231.22L96.35 200.22zM150.05 231.22L176.9 246.72L176.9 277.72L150.05 293.22L123.2 277.72L123.2 246.72zM123.2 370.72L150.05 386.22L150.05 417.22L123.2 432.72L96.35 417.22L96.35 386.22zM123.2 463.72L150.05 479.22L150.05 510.22L123.2 525.72L96.35 510.22L96.35 479.22zM150.05 510.22L176.9 525.72L176.9 556.72L150.05 572.22L123.2 556.72L123.2 525.72zM176.9 -1.28L203.74 14.22L203.74 45.22L176.9 60.72L150.05 45.22L150.05 14.22zM203.74 138.22L230.59 153.72L230.59 184.72L203.74 200.22L176.9 184.72L176.9 153.72zM203.74 231.22L230.59 246.72L230.59 277.72L203.74 293.22L176.9 277.72L176.9 246.72zM176.9 370.72L203.74 386.22L203.74 417.22L176.9 432.72L150.05 417.22L150.05 386.22zM230.59 -1.28L257.44 14.22L257.44 45.22L230.59 60.72L203.74 45.22L203.74 14.22zM257.44 231.22L284.29 246.72L284.29 277.72L257.44 293.22L230.59 277.72L230.59 246.72zM230.59 277.72L257.44 293.22L257.44 324.22L230.59 339.72L203.74 324.22L203.74 293.22zM257.44 417.22L284.29 432.72L284.29 463.72L257.44 479.22L230.59 463.72L230.59 432.72zM284.29 -1.28L311.13 14.22L311.13 45.22L284.29 60.72L257.44 45.22L257.44 14.22zM311.13 45.22L337.98 60.72L337.98 91.72L311.13 107.22L284.29 91.72L284.29 60.72zM311.13 138.22L337.98 153.72L337.98 184.72L311.13 200.22L284.29 184.72L284.29 153.72zM284.29 463.72L311.13 479.22L311.13 510.22L284.29 525.72L257.44 510.22L257.44 479.22zM311.13 510.22L337.98 525.72L337.98 556.72L311.13 572.22L284.29 556.72L284.29 525.72zM284.29 556.72L311.13 572.22L311.13 603.22L284.29 618.72L257.44 603.22L257.44 572.22zM337.98 277.72L364.83 293.22L364.83 324.22L337.98 339.72L311.13 324.22L311.13 293.22zM364.83 324.22L391.68 339.72L391.68 370.72L364.83 386.22L337.98 370.72L337.98 339.72zM364.83 510.22L391.68 525.72L391.68 556.72L364.83 572.22L337.98 556.72L337.98 525.72zM391.68 184.72L418.52 200.22L418.52 231.22L391.68 246.72L364.83 231.22L364.83 200.22zM418.52 510.22L445.37 525.72L445.37 556.72L418.52 572.22L391.68 556.72L391.68 525.72zM445.37 91.72L472.22 107.22L472.22 138.22L445.37 153.72L418.52 138.22L418.52 107.22zM472.22 138.22L499.07 153.72L499.07 184.72L472.22 200.22L445.37 184.72L445.37 153.72zM472.22 231.22L499.07 246.72L499.07 277.72L472.22 293.22L445.37 277.72L445.37 246.72zM445.37 370.72L472.22 386.22L472.22 417.22L445.37 432.72L418.52 417.22L418.52 386.22zM525.91 45.22L552.76 60.72L552.76 91.72L525.91 107.22L499.07 91.72L499.07 60.72zM525.91 138.22L552.76 153.72L552.76 184.72L525.91 200.22L499.07 184.72L499.07 153.72zM499.07 184.72L525.91 200.22L525.91 231.22L499.07 246.72L472.22 231.22L472.22 200.22zM499.07 370.72L525.91 386.22L525.91 417.22L499.07 432.72L472.22 417.22L472.22 386.22zM525.91 417.22L552.76 432.72L552.76 463.72L525.91 479.22L499.07 463.72L499.07 432.72zM525.91 510.22L552.76 525.72L552.76 556.72L525.91 572.22L499.07 556.72L499.07 525.72zM499.07 556.72L525.91 572.22L525.91 603.22L499.07 618.72L472.22 603.22L472.22 572.22zM579.61 324.22L606.46 339.72L606.46 370.72L579.61 386.22L552.76 370.72L552.76 339.72zM552.76 556.72L579.61 572.22L579.61 603.22L552.76 618.72L525.91 603.22L525.91 572.22zM633.3 45.22L660.15 60.72L660.15 91.72L633.3 107.22L606.46 91.72L606.46 60.72zM606.46 91.72L633.3 107.22L633.3 138.22L606.46 153.72L579.61 138.22L579.61 107.22zM633.3 324.22L660.15 339.72L660.15 370.72L633.3 386.22L606.46 370.72L606.46 339.72zM633.3 510.22L660.15 525.72L660.15 556.72L633.3 572.22L606.46 556.72L606.46 525.72zM660.15 91.72L687 107.22L687 138.22L660.15 153.72L633.3 138.22L633.3 107.22zM660.15 277.72L687 293.22L687 324.22L660.15 339.72L633.3 324.22L633.3 293.22zM660.15 370.72L687 386.22L687 417.22L660.15 432.72L633.3 417.22L633.3 386.22zM713.85 91.72L740.69 107.22L740.69 138.22L713.85 153.72L687 138.22L687 107.22zM713.85 277.72L740.69 293.22L740.69 324.22L713.85 339.72L687 324.22L687 293.22zM767.54 91.72L794.39 107.22L794.39 138.22L767.54 153.72L740.69 138.22L740.69 107.22zM767.54 184.72L794.39 200.22L794.39 231.22L767.54 246.72L740.69 231.22L740.69 200.22zM767.54 277.72L794.39 293.22L794.39 324.22L767.54 339.72L740.69 324.22L740.69 293.22zM794.39 417.22L821.24 432.72L821.24 463.72L794.39 479.22L767.54 463.72L767.54 432.72zM767.54 463.72L794.39 479.22L794.39 510.22L767.54 525.72L740.69 510.22L740.69 479.22zM848.08 45.22L874.93 60.72L874.93 91.72L848.08 107.22L821.24 91.72L821.24 60.72zM848.08 231.22L874.93 246.72L874.93 277.72L848.08 293.22L821.24 277.72L821.24 246.72zM821.24 463.72L848.08 479.22L848.08 510.22L821.24 525.72L794.39 510.22L794.39 479.22zM848.08 510.22L874.93 525.72L874.93 556.72L848.08 572.22L821.24 556.72L821.24 525.72zM901.78 138.22L928.63 153.72L928.63 184.72L901.78 200.22L874.93 184.72L874.93 153.72zM874.93 277.72L901.78 293.22L901.78 324.22L874.93 339.72L848.08 324.22L848.08 293.22zM874.93 370.72L901.78 386.22L901.78 417.22L874.93 432.72L848.08 417.22L848.08 386.22zM874.93 463.72L901.78 479.22L901.78 510.22L874.93 525.72L848.08 510.22L848.08 479.22zM874.93 556.72L901.78 572.22L901.78 603.22L874.93 618.72L848.08 603.22L848.08 572.22zM928.63 277.72L955.47 293.22L955.47 324.22L928.63 339.72L901.78 324.22L901.78 293.22zM955.47 324.22L982.32 339.72L982.32 370.72L955.47 386.22L928.63 370.72L928.63 339.72zM982.32 91.72L1009.17 107.22L1009.17 138.22L982.32 153.72L955.47 138.22L955.47 107.22zM1009.17 138.22L1036.02 153.72L1036.02 184.72L1009.17 200.22L982.32 184.72L982.32 153.72zM982.32 184.72L1009.17 200.22L1009.17 231.22L982.32 246.72L955.47 231.22L955.47 200.22zM1009.17 324.22L1036.02 339.72L1036.02 370.72L1009.17 386.22L982.32 370.72L982.32 339.72zM1036.02 91.72L1062.86 107.22L1062.86 138.22L1036.02 153.72L1009.17 138.22L1009.17 107.22zM1036.02 184.72L1062.86 200.22L1062.86 231.22L1036.02 246.72L1009.17 231.22L1009.17 200.22zM1062.86 231.22L1089.71 246.72L1089.71 277.72L1062.86 293.22L1036.02 277.72L1036.02 246.72zM1089.71 -1.28L1116.56 14.22L1116.56 45.22L1089.71 60.72L1062.86 45.22L1062.86 14.22zM1089.71 91.72L1116.56 107.22L1116.56 138.22L1089.71 153.72L1062.86 138.22L1062.86 107.22zM1116.56 231.22L1143.41 246.72L1143.41 277.72L1116.56 293.22L1089.71 277.72L1089.71 246.72zM1116.56 324.22L1143.41 339.72L1143.41 370.72L1116.56 386.22L1089.71 370.72L1089.71 339.72zM1089.71 370.72L1116.56 386.22L1116.56 417.22L1089.71 432.72L1062.86 417.22L1062.86 386.22zM1143.41 -1.28L1170.25 14.22L1170.25 45.22L1143.41 60.72L1116.56 45.22L1116.56 14.22zM1170.25 45.22L1197.1 60.72L1197.1 91.72L1170.25 107.22L1143.41 91.72L1143.41 60.72zM1170.25 138.22L1197.1 153.72L1197.1 184.72L1170.25 200.22L1143.41 184.72L1143.41 153.72zM1143.41 184.72L1170.25 200.22L1170.25 231.22L1143.41 246.72L1116.56 231.22L1116.56 200.22zM1143.41 370.72L1170.25 386.22L1170.25 417.22L1143.41 432.72L1116.56 417.22L1116.56 386.22zM1143.41 556.72L1170.25 572.22L1170.25 603.22L1143.41 618.72L1116.56 603.22L1116.56 572.22zM1197.1 -1.28L1223.95 14.22L1223.95 45.22L1197.1 60.72L1170.25 45.22L1170.25 14.22zM1223.95 138.22L1250.8 153.72L1250.8 184.72L1223.95 200.22L1197.1 184.72L1197.1 153.72zM1197.1 184.72L1223.95 200.22L1223.95 231.22L1197.1 246.72L1170.25 231.22L1170.25 200.22zM1223.95 231.22L1250.8 246.72L1250.8 277.72L1223.95 293.22L1197.1 277.72L1197.1 246.72zM1197.1 277.72L1223.95 293.22L1223.95 324.22L1197.1 339.72L1170.25 324.22L1170.25 293.22zM1223.95 324.22L1250.8 339.72L1250.8 370.72L1223.95 386.22L1197.1 370.72L1197.1 339.72zM1223.95 510.22L1250.8 525.72L1250.8 556.72L1223.95 572.22L1197.1 556.72L1197.1 525.72zM1197.1 556.72L1223.95 572.22L1223.95 603.22L1197.1 618.72L1170.25 603.22L1170.25 572.22zM1277.64 45.22L1304.49 60.72L1304.49 91.72L1277.64 107.22L1250.8 91.72L1250.8 60.72zM1250.8 370.72L1277.64 386.22L1277.64 417.22L1250.8 432.72L1223.95 417.22L1223.95 386.22zM1277.64 417.22L1304.49 432.72L1304.49 463.72L1277.64 479.22L1250.8 463.72L1250.8 432.72zM1277.64 510.22L1304.49 525.72L1304.49 556.72L1277.64 572.22L1250.8 556.72L1250.8 525.72zM1250.8 556.72L1277.64 572.22L1277.64 603.22L1250.8 618.72L1223.95 603.22L1223.95 572.22zM1331.34 45.22L1358.19 60.72L1358.19 91.72L1331.34 107.22L1304.49 91.72L1304.49 60.72zM1331.34 231.22L1358.19 246.72L1358.19 277.72L1331.34 293.22L1304.49 277.72L1304.49 246.72zM1304.49 370.72L1331.34 386.22L1331.34 417.22L1304.49 432.72L1277.64 417.22L1277.64 386.22zM1304.49 463.72L1331.34 479.22L1331.34 510.22L1304.49 525.72L1277.64 510.22L1277.64 479.22zM1385.04 45.22L1411.88 60.72L1411.88 91.72L1385.04 107.22L1358.19 91.72L1358.19 60.72zM1385.04 138.22L1411.88 153.72L1411.88 184.72L1385.04 200.22L1358.19 184.72L1358.19 153.72zM1385.04 417.22L1411.88 432.72L1411.88 463.72L1385.04 479.22L1358.19 463.72L1358.19 432.72zM1385.04 510.22L1411.88 525.72L1411.88 556.72L1385.04 572.22L1358.19 556.72L1358.19 525.72zM1358.19 556.72L1385.04 572.22L1385.04 603.22L1358.19 618.72L1331.34 603.22L1331.34 572.22zM1438.73 138.22L1465.58 153.72L1465.58 184.72L1438.73 200.22L1411.88 184.72L1411.88 153.72zM1438.73 231.22L1465.58 246.72L1465.58 277.72L1438.73 293.22L1411.88 277.72L1411.88 246.72zM1411.88 277.72L1438.73 293.22L1438.73 324.22L1411.88 339.72L1385.04 324.22L1385.04 293.22zM1438.73 417.22L1465.58 432.72L1465.58 463.72L1438.73 479.22L1411.88 463.72L1411.88 432.72zM1411.88 556.72L1438.73 572.22L1438.73 603.22L1411.88 618.72L1385.04 603.22L1385.04 572.22z" stroke="rgba(89, 89, 89, 1)" stroke-width="2"></path><path d="M39.56 324.22 a3.1 3.1 0 1 0 6.2 0 a3.1 3.1 0 1 0 -6.2 0zM66.41 339.72 a3.1 3.1 0 1 0 6.2 0 a3.1 3.1 0 1 0 -6.2 0zM66.41 370.72 a3.1 3.1 0 1 0 6.2 0 a3.1 3.1 0 1 0 -6.2 0zM39.56 386.22 a3.1 3.1 0 1 0 6.2 0 a3.1 3.1 0 1 0 -6.2 0zM12.71 370.72 a3.1 3.1 0 1 0 6.2 0 a3.1 3.1 0 1 0 -6.2 0zM12.71 339.72 a3.1 3.1 0 1 0 6.2 0 a3.1 3.1 0 1 0 -6.2 0zM39.56 417.22 a3.1 3.1 0 1 0 6.2 0 a3.1 3.1 0 1 0 -6.2 0zM12.71 432.72 a3.1 3.1 0 1 0 6.2 0 a3.1 3.1 0 1 0 -6.2 0zM-14.14 417.22 a3.1 3.1 0 1 0 6.2 0 a3.1 3.1 0 1 0 -6.2 0zM-14.14 386.22 a3.1 3.1 0 1 0 6.2 0 a3.1 3.1 0 1 0 -6.2 0zM12.71 463.72 a3.1 3.1 0 1 0 6.2 0 a3.1 3.1 0 1 0 -6.2 0zM39.56 479.22 a3.1 3.1 0 1 0 6.2 0 a3.1 3.1 0 1 0 -6.2 0zM39.56 510.22 a3.1 3.1 0 1 0 6.2 0 a3.1 3.1 0 1 0 -6.2 0zM12.71 525.72 a3.1 3.1 0 1 0 6.2 0 a3.1 3.1 0 1 0 -6.2 0zM-14.14 510.22 a3.1 3.1 0 1 0 6.2 0 a3.1 3.1 0 1 0 -6.2 0zM-14.14 479.22 a3.1 3.1 0 1 0 6.2 0 a3.1 3.1 0 1 0 -6.2 0zM12.71 556.72 a3.1 3.1 0 1 0 6.2 0 a3.1 3.1 0 1 0 -6.2 0zM39.56 572.22 a3.1 3.1 0 1 0 6.2 0 a3.1 3.1 0 1 0 -6.2 0zM39.56 603.22 a3.1 3.1 0 1 0 6.2 0 a3.1 3.1 0 1 0 -6.2 0zM12.71 618.72 a3.1 3.1 0 1 0 6.2 0 a3.1 3.1 0 1 0 -6.2 0zM-14.14 603.22 a3.1 3.1 0 1 0 6.2 0 a3.1 3.1 0 1 0 -6.2 0zM-14.14 572.22 a3.1 3.1 0 1 0 6.2 0 a3.1 3.1 0 1 0 -6.2 0zM66.41 -1.28 a3.1 3.1 0 1 0 6.2 0 a3.1 3.1 0 1 0 -6.2 0zM93.25 14.22 a3.1 3.1 0 1 0 6.2 0 a3.1 3.1 0 1 0 -6.2 0zM93.25 45.22 a3.1 3.1 0 1 0 6.2 0 a3.1 3.1 0 1 0 -6.2 0zM66.41 60.72 a3.1 3.1 0 1 0 6.2 0 a3.1 3.1 0 1 0 -6.2 0zM39.56 45.22 a3.1 3.1 0 1 0 6.2 0 a3.1 3.1 0 1 0 -6.2 0zM39.56 14.22 a3.1 3.1 0 1 0 6.2 0 a3.1 3.1 0 1 0 -6.2 0zM66.41 91.72 a3.1 3.1 0 1 0 6.2 0 a3.1 3.1 0 1 0 -6.2 0zM93.25 107.22 a3.1 3.1 0 1 0 6.2 0 a3.1 3.1 0 1 0 -6.2 0zM93.25 138.22 a3.1 3.1 0 1 0 6.2 0 a3.1 3.1 0 1 0 -6.2 0zM66.41 153.72 a3.1 3.1 0 1 0 6.2 0 a3.1 3.1 0 1 0 -6.2 0zM39.56 138.22 a3.1 3.1 0 1 0 6.2 0 a3.1 3.1 0 1 0 -6.2 0zM39.56 107.22 a3.1 3.1 0 1 0 6.2 0 a3.1 3.1 0 1 0 -6.2 0zM93.25 231.22 a3.1 3.1 0 1 0 6.2 0 a3.1 3.1 0 1 0 -6.2 0zM120.1 246.72 a3.1 3.1 0 1 0 6.2 0 a3.1 3.1 0 1 0 -6.2 0zM120.1 277.72 a3.1 3.1 0 1 0 6.2 0 a3.1 3.1 0 1 0 -6.2 0zM93.25 293.22 a3.1 3.1 0 1 0 6.2 0 a3.1 3.1 0 1 0 -6.2 0zM66.41 277.72 a3.1 3.1 0 1 0 6.2 0 a3.1 3.1 0 1 0 -6.2 0zM66.41 246.72 a3.1 3.1 0 1 0 6.2 0 a3.1 3.1 0 1 0 -6.2 0zM93.25 417.22 a3.1 3.1 0 1 0 6.2 0 a3.1 3.1 0 1 0 -6.2 0zM120.1 432.72 a3.1 3.1 0 1 0 6.2 0 a3.1 3.1 0 1 0 -6.2 0zM120.1 463.72 a3.1 3.1 0 1 0 6.2 0 a3.1 3.1 0 1 0 -6.2 0zM93.25 479.22 a3.1 3.1 0 1 0 6.2 0 a3.1 3.1 0 1 0 -6.2 0zM66.41 463.72 a3.1 3.1 0 1 0 6.2 0 a3.1 3.1 0 1 0 -6.2 0zM66.41 432.72 a3.1 3.1 0 1 0 6.2 0 a3.1 3.1 0 1 0 -6.2 0zM93.25 510.22 a3.1 3.1 0 1 0 6.2 0 a3.1 3.1 0 1 0 -6.2 0zM66.41 525.72 a3.1 3.1 0 1 0 6.2 0 a3.1 3.1 0 1 0 -6.2 0zM120.1 91.72 a3.1 3.1 0 1 0 6.2 0 a3.1 3.1 0 1 0 -6.2 0zM146.95 107.22 a3.1 3.1 0 1 0 6.2 0 a3.1 3.1 0 1 0 -6.2 0zM146.95 138.22 a3.1 3.1 0 1 0 6.2 0 a3.1 3.1 0 1 0 -6.2 0zM120.1 153.72 a3.1 3.1 0 1 0 6.2 0 a3.1 3.1 0 1 0 -6.2 0zM120.1 184.72 a3.1 3.1 0 1 0 6.2 0 a3.1 3.1 0 1 0 -6.2 0zM146.95 200.22 a3.1 3.1 0 1 0 6.2 0 a3.1 3.1 0 1 0 -6.2 0zM146.95 231.22 a3.1 3.1 0 1 0 6.2 0 a3.1 3.1 0 1 0 -6.2 0zM93.25 200.22 a3.1 3.1 0 1 0 6.2 0 a3.1 3.1 0 1 0 -6.2 0zM173.8 246.72 a3.1 3.1 0 1 0 6.2 0 a3.1 3.1 0 1 0 -6.2 0zM173.8 277.72 a3.1 3.1 0 1 0 6.2 0 a3.1 3.1 0 1 0 -6.2 0zM146.95 293.22 a3.1 3.1 0 1 0 6.2 0 a3.1 3.1 0 1 0 -6.2 0zM120.1 370.72 a3.1 3.1 0 1 0 6.2 0 a3.1 3.1 0 1 0 -6.2 0zM146.95 386.22 a3.1 3.1 0 1 0 6.2 0 a3.1 3.1 0 1 0 -6.2 0zM146.95 417.22 a3.1 3.1 0 1 0 6.2 0 a3.1 3.1 0 1 0 -6.2 0zM93.25 386.22 a3.1 3.1 0 1 0 6.2 0 a3.1 3.1 0 1 0 -6.2 0zM146.95 479.22 a3.1 3.1 0 1 0 6.2 0 a3.1 3.1 0 1 0 -6.2 0zM146.95 510.22 a3.1 3.1 0 1 0 6.2 0 a3.1 3.1 0 1 0 -6.2 0zM120.1 525.72 a3.1 3.1 0 1 0 6.2 0 a3.1 3.1 0 1 0 -6.2 0zM173.8 525.72 a3.1 3.1 0 1 0 6.2 0 a3.1 3.1 0 1 0 -6.2 0zM173.8 556.72 a3.1 3.1 0 1 0 6.2 0 a3.1 3.1 0 1 0 -6.2 0zM146.95 572.22 a3.1 3.1 0 1 0 6.2 0 a3.1 3.1 0 1 0 -6.2 0zM120.1 556.72 a3.1 3.1 0 1 0 6.2 0 a3.1 3.1 0 1 0 -6.2 0zM173.8 -1.28 a3.1 3.1 0 1 0 6.2 0 a3.1 3.1 0 1 0 -6.2 0zM200.64 14.22 a3.1 3.1 0 1 0 6.2 0 a3.1 3.1 0 1 0 -6.2 0zM200.64 45.22 a3.1 3.1 0 1 0 6.2 0 a3.1 3.1 0 1 0 -6.2 0zM173.8 60.72 a3.1 3.1 0 1 0 6.2 0 a3.1 3.1 0 1 0 -6.2 0zM146.95 45.22 a3.1 3.1 0 1 0 6.2 0 a3.1 3.1 0 1 0 -6.2 0zM146.95 14.22 a3.1 3.1 0 1 0 6.2 0 a3.1 3.1 0 1 0 -6.2 0zM200.64 138.22 a3.1 3.1 0 1 0 6.2 0 a3.1 3.1 0 1 0 -6.2 0zM227.49 153.72 a3.1 3.1 0 1 0 6.2 0 a3.1 3.1 0 1 0 -6.2 0zM227.49 184.72 a3.1 3.1 0 1 0 6.2 0 a3.1 3.1 0 1 0 -6.2 0zM200.64 200.22 a3.1 3.1 0 1 0 6.2 0 a3.1 3.1 0 1 0 -6.2 0zM173.8 184.72 a3.1 3.1 0 1 0 6.2 0 a3.1 3.1 0 1 0 -6.2 0zM173.8 153.72 a3.1 3.1 0 1 0 6.2 0 a3.1 3.1 0 1 0 -6.2 0zM200.64 231.22 a3.1 3.1 0 1 0 6.2 0 a3.1 3.1 0 1 0 -6.2 0zM227.49 246.72 a3.1 3.1 0 1 0 6.2 0 a3.1 3.1 0 1 0 -6.2 0zM227.49 277.72 a3.1 3.1 0 1 0 6.2 0 a3.1 3.1 0 1 0 -6.2 0zM200.64 293.22 a3.1 3.1 0 1 0 6.2 0 a3.1 3.1 0 1 0 -6.2 0zM173.8 370.72 a3.1 3.1 0 1 0 6.2 0 a3.1 3.1 0 1 0 -6.2 0zM200.64 386.22 a3.1 3.1 0 1 0 6.2 0 a3.1 3.1 0 1 0 -6.2 0zM200.64 417.22 a3.1 3.1 0 1 0 6.2 0 a3.1 3.1 0 1 0 -6.2 0zM173.8 432.72 a3.1 3.1 0 1 0 6.2 0 a3.1 3.1 0 1 0 -6.2 0zM227.49 -1.28 a3.1 3.1 0 1 0 6.2 0 a3.1 3.1 0 1 0 -6.2 0zM254.34 14.22 a3.1 3.1 0 1 0 6.2 0 a3.1 3.1 0 1 0 -6.2 0zM254.34 45.22 a3.1 3.1 0 1 0 6.2 0 a3.1 3.1 0 1 0 -6.2 0zM227.49 60.72 a3.1 3.1 0 1 0 6.2 0 a3.1 3.1 0 1 0 -6.2 0zM254.34 231.22 a3.1 3.1 0 1 0 6.2 0 a3.1 3.1 0 1 0 -6.2 0zM281.19 246.72 a3.1 3.1 0 1 0 6.2 0 a3.1 3.1 0 1 0 -6.2 0zM281.19 277.72 a3.1 3.1 0 1 0 6.2 0 a3.1 3.1 0 1 0 -6.2 0zM254.34 293.22 a3.1 3.1 0 1 0 6.2 0 a3.1 3.1 0 1 0 -6.2 0zM254.34 324.22 a3.1 3.1 0 1 0 6.2 0 a3.1 3.1 0 1 0 -6.2 0zM227.49 339.72 a3.1 3.1 0 1 0 6.2 0 a3.1 3.1 0 1 0 -6.2 0zM200.64 324.22 a3.1 3.1 0 1 0 6.2 0 a3.1 3.1 0 1 0 -6.2 0zM254.34 417.22 a3.1 3.1 0 1 0 6.2 0 a3.1 3.1 0 1 0 -6.2 0zM281.19 432.72 a3.1 3.1 0 1 0 6.2 0 a3.1 3.1 0 1 0 -6.2 0zM281.19 463.72 a3.1 3.1 0 1 0 6.2 0 a3.1 3.1 0 1 0 -6.2 0zM254.34 479.22 a3.1 3.1 0 1 0 6.2 0 a3.1 3.1 0 1 0 -6.2 0zM227.49 463.72 a3.1 3.1 0 1 0 6.2 0 a3.1 3.1 0 1 0 -6.2 0zM227.49 432.72 a3.1 3.1 0 1 0 6.2 0 a3.1 3.1 0 1 0 -6.2 0zM281.19 -1.28 a3.1 3.1 0 1 0 6.2 0 a3.1 3.1 0 1 0 -6.2 0zM308.03 14.22 a3.1 3.1 0 1 0 6.2 0 a3.1 3.1 0 1 0 -6.2 0zM308.03 45.22 a3.1 3.1 0 1 0 6.2 0 a3.1 3.1 0 1 0 -6.2 0zM281.19 60.72 a3.1 3.1 0 1 0 6.2 0 a3.1 3.1 0 1 0 -6.2 0zM334.88 60.72 a3.1 3.1 0 1 0 6.2 0 a3.1 3.1 0 1 0 -6.2 0zM334.88 91.72 a3.1 3.1 0 1 0 6.2 0 a3.1 3.1 0 1 0 -6.2 0zM308.03 107.22 a3.1 3.1 0 1 0 6.2 0 a3.1 3.1 0 1 0 -6.2 0zM281.19 91.72 a3.1 3.1 0 1 0 6.2 0 a3.1 3.1 0 1 0 -6.2 0zM308.03 138.22 a3.1 3.1 0 1 0 6.2 0 a3.1 3.1 0 1 0 -6.2 0zM334.88 153.72 a3.1 3.1 0 1 0 6.2 0 a3.1 3.1 0 1 0 -6.2 0zM334.88 184.72 a3.1 3.1 0 1 0 6.2 0 a3.1 3.1 0 1 0 -6.2 0zM308.03 200.22 a3.1 3.1 0 1 0 6.2 0 a3.1 3.1 0 1 0 -6.2 0zM281.19 184.72 a3.1 3.1 0 1 0 6.2 0 a3.1 3.1 0 1 0 -6.2 0zM281.19 153.72 a3.1 3.1 0 1 0 6.2 0 a3.1 3.1 0 1 0 -6.2 0zM308.03 479.22 a3.1 3.1 0 1 0 6.2 0 a3.1 3.1 0 1 0 -6.2 0zM308.03 510.22 a3.1 3.1 0 1 0 6.2 0 a3.1 3.1 0 1 0 -6.2 0zM281.19 525.72 a3.1 3.1 0 1 0 6.2 0 a3.1 3.1 0 1 0 -6.2 0zM254.34 510.22 a3.1 3.1 0 1 0 6.2 0 a3.1 3.1 0 1 0 -6.2 0zM334.88 525.72 a3.1 3.1 0 1 0 6.2 0 a3.1 3.1 0 1 0 -6.2 0zM334.88 556.72 a3.1 3.1 0 1 0 6.2 0 a3.1 3.1 0 1 0 -6.2 0zM308.03 572.22 a3.1 3.1 0 1 0 6.2 0 a3.1 3.1 0 1 0 -6.2 0zM281.19 556.72 a3.1 3.1 0 1 0 6.2 0 a3.1 3.1 0 1 0 -6.2 0zM308.03 603.22 a3.1 3.1 0 1 0 6.2 0 a3.1 3.1 0 1 0 -6.2 0zM281.19 618.72 a3.1 3.1 0 1 0 6.2 0 a3.1 3.1 0 1 0 -6.2 0zM254.34 603.22 a3.1 3.1 0 1 0 6.2 0 a3.1 3.1 0 1 0 -6.2 0zM254.34 572.22 a3.1 3.1 0 1 0 6.2 0 a3.1 3.1 0 1 0 -6.2 0zM334.88 277.72 a3.1 3.1 0 1 0 6.2 0 a3.1 3.1 0 1 0 -6.2 0zM361.73 293.22 a3.1 3.1 0 1 0 6.2 0 a3.1 3.1 0 1 0 -6.2 0zM361.73 324.22 a3.1 3.1 0 1 0 6.2 0 a3.1 3.1 0 1 0 -6.2 0zM334.88 339.72 a3.1 3.1 0 1 0 6.2 0 a3.1 3.1 0 1 0 -6.2 0zM308.03 324.22 a3.1 3.1 0 1 0 6.2 0 a3.1 3.1 0 1 0 -6.2 0zM308.03 293.22 a3.1 3.1 0 1 0 6.2 0 a3.1 3.1 0 1 0 -6.2 0zM388.58 339.72 a3.1 3.1 0 1 0 6.2 0 a3.1 3.1 0 1 0 -6.2 0zM388.58 370.72 a3.1 3.1 0 1 0 6.2 0 a3.1 3.1 0 1 0 -6.2 0zM361.73 386.22 a3.1 3.1 0 1 0 6.2 0 a3.1 3.1 0 1 0 -6.2 0zM334.88 370.72 a3.1 3.1 0 1 0 6.2 0 a3.1 3.1 0 1 0 -6.2 0zM361.73 510.22 a3.1 3.1 0 1 0 6.2 0 a3.1 3.1 0 1 0 -6.2 0zM388.58 525.72 a3.1 3.1 0 1 0 6.2 0 a3.1 3.1 0 1 0 -6.2 0zM388.58 556.72 a3.1 3.1 0 1 0 6.2 0 a3.1 3.1 0 1 0 -6.2 0zM361.73 572.22 a3.1 3.1 0 1 0 6.2 0 a3.1 3.1 0 1 0 -6.2 0zM388.58 184.72 a3.1 3.1 0 1 0 6.2 0 a3.1 3.1 0 1 0 -6.2 0zM415.42 200.22 a3.1 3.1 0 1 0 6.2 0 a3.1 3.1 0 1 0 -6.2 0zM415.42 231.22 a3.1 3.1 0 1 0 6.2 0 a3.1 3.1 0 1 0 -6.2 0zM388.58 246.72 a3.1 3.1 0 1 0 6.2 0 a3.1 3.1 0 1 0 -6.2 0zM361.73 231.22 a3.1 3.1 0 1 0 6.2 0 a3.1 3.1 0 1 0 -6.2 0zM361.73 200.22 a3.1 3.1 0 1 0 6.2 0 a3.1 3.1 0 1 0 -6.2 0zM415.42 510.22 a3.1 3.1 0 1 0 6.2 0 a3.1 3.1 0 1 0 -6.2 0zM442.27 525.72 a3.1 3.1 0 1 0 6.2 0 a3.1 3.1 0 1 0 -6.2 0zM442.27 556.72 a3.1 3.1 0 1 0 6.2 0 a3.1 3.1 0 1 0 -6.2 0zM415.42 572.22 a3.1 3.1 0 1 0 6.2 0 a3.1 3.1 0 1 0 -6.2 0zM442.27 91.72 a3.1 3.1 0 1 0 6.2 0 a3.1 3.1 0 1 0 -6.2 0zM469.12 107.22 a3.1 3.1 0 1 0 6.2 0 a3.1 3.1 0 1 0 -6.2 0zM469.12 138.22 a3.1 3.1 0 1 0 6.2 0 a3.1 3.1 0 1 0 -6.2 0zM442.27 153.72 a3.1 3.1 0 1 0 6.2 0 a3.1 3.1 0 1 0 -6.2 0zM415.42 138.22 a3.1 3.1 0 1 0 6.2 0 a3.1 3.1 0 1 0 -6.2 0zM415.42 107.22 a3.1 3.1 0 1 0 6.2 0 a3.1 3.1 0 1 0 -6.2 0zM495.97 153.72 a3.1 3.1 0 1 0 6.2 0 a3.1 3.1 0 1 0 -6.2 0zM495.97 184.72 a3.1 3.1 0 1 0 6.2 0 a3.1 3.1 0 1 0 -6.2 0zM469.12 200.22 a3.1 3.1 0 1 0 6.2 0 a3.1 3.1 0 1 0 -6.2 0zM442.27 184.72 a3.1 3.1 0 1 0 6.2 0 a3.1 3.1 0 1 0 -6.2 0zM469.12 231.22 a3.1 3.1 0 1 0 6.2 0 a3.1 3.1 0 1 0 -6.2 0zM495.97 246.72 a3.1 3.1 0 1 0 6.2 0 a3.1 3.1 0 1 0 -6.2 0zM495.97 277.72 a3.1 3.1 0 1 0 6.2 0 a3.1 3.1 0 1 0 -6.2 0zM469.12 293.22 a3.1 3.1 0 1 0 6.2 0 a3.1 3.1 0 1 0 -6.2 0zM442.27 277.72 a3.1 3.1 0 1 0 6.2 0 a3.1 3.1 0 1 0 -6.2 0zM442.27 246.72 a3.1 3.1 0 1 0 6.2 0 a3.1 3.1 0 1 0 -6.2 0zM442.27 370.72 a3.1 3.1 0 1 0 6.2 0 a3.1 3.1 0 1 0 -6.2 0zM469.12 386.22 a3.1 3.1 0 1 0 6.2 0 a3.1 3.1 0 1 0 -6.2 0zM469.12 417.22 a3.1 3.1 0 1 0 6.2 0 a3.1 3.1 0 1 0 -6.2 0zM442.27 432.72 a3.1 3.1 0 1 0 6.2 0 a3.1 3.1 0 1 0 -6.2 0zM415.42 417.22 a3.1 3.1 0 1 0 6.2 0 a3.1 3.1 0 1 0 -6.2 0zM415.42 386.22 a3.1 3.1 0 1 0 6.2 0 a3.1 3.1 0 1 0 -6.2 0zM522.81 45.22 a3.1 3.1 0 1 0 6.2 0 a3.1 3.1 0 1 0 -6.2 0zM549.66 60.72 a3.1 3.1 0 1 0 6.2 0 a3.1 3.1 0 1 0 -6.2 0zM549.66 91.72 a3.1 3.1 0 1 0 6.2 0 a3.1 3.1 0 1 0 -6.2 0zM522.81 107.22 a3.1 3.1 0 1 0 6.2 0 a3.1 3.1 0 1 0 -6.2 0zM495.97 91.72 a3.1 3.1 0 1 0 6.2 0 a3.1 3.1 0 1 0 -6.2 0zM495.97 60.72 a3.1 3.1 0 1 0 6.2 0 a3.1 3.1 0 1 0 -6.2 0zM522.81 138.22 a3.1 3.1 0 1 0 6.2 0 a3.1 3.1 0 1 0 -6.2 0zM549.66 153.72 a3.1 3.1 0 1 0 6.2 0 a3.1 3.1 0 1 0 -6.2 0zM549.66 184.72 a3.1 3.1 0 1 0 6.2 0 a3.1 3.1 0 1 0 -6.2 0zM522.81 200.22 a3.1 3.1 0 1 0 6.2 0 a3.1 3.1 0 1 0 -6.2 0zM522.81 231.22 a3.1 3.1 0 1 0 6.2 0 a3.1 3.1 0 1 0 -6.2 0zM495.97 370.72 a3.1 3.1 0 1 0 6.2 0 a3.1 3.1 0 1 0 -6.2 0zM522.81 386.22 a3.1 3.1 0 1 0 6.2 0 a3.1 3.1 0 1 0 -6.2 0zM522.81 417.22 a3.1 3.1 0 1 0 6.2 0 a3.1 3.1 0 1 0 -6.2 0zM495.97 432.72 a3.1 3.1 0 1 0 6.2 0 a3.1 3.1 0 1 0 -6.2 0zM549.66 432.72 a3.1 3.1 0 1 0 6.2 0 a3.1 3.1 0 1 0 -6.2 0zM549.66 463.72 a3.1 3.1 0 1 0 6.2 0 a3.1 3.1 0 1 0 -6.2 0zM522.81 479.22 a3.1 3.1 0 1 0 6.2 0 a3.1 3.1 0 1 0 -6.2 0zM495.97 463.72 a3.1 3.1 0 1 0 6.2 0 a3.1 3.1 0 1 0 -6.2 0zM522.81 510.22 a3.1 3.1 0 1 0 6.2 0 a3.1 3.1 0 1 0 -6.2 0zM549.66 525.72 a3.1 3.1 0 1 0 6.2 0 a3.1 3.1 0 1 0 -6.2 0zM549.66 556.72 a3.1 3.1 0 1 0 6.2 0 a3.1 3.1 0 1 0 -6.2 0zM522.81 572.22 a3.1 3.1 0 1 0 6.2 0 a3.1 3.1 0 1 0 -6.2 0zM495.97 556.72 a3.1 3.1 0 1 0 6.2 0 a3.1 3.1 0 1 0 -6.2 0zM495.97 525.72 a3.1 3.1 0 1 0 6.2 0 a3.1 3.1 0 1 0 -6.2 0zM522.81 603.22 a3.1 3.1 0 1 0 6.2 0 a3.1 3.1 0 1 0 -6.2 0zM495.97 618.72 a3.1 3.1 0 1 0 6.2 0 a3.1 3.1 0 1 0 -6.2 0zM469.12 603.22 a3.1 3.1 0 1 0 6.2 0 a3.1 3.1 0 1 0 -6.2 0zM469.12 572.22 a3.1 3.1 0 1 0 6.2 0 a3.1 3.1 0 1 0 -6.2 0zM576.51 324.22 a3.1 3.1 0 1 0 6.2 0 a3.1 3.1 0 1 0 -6.2 0zM603.36 339.72 a3.1 3.1 0 1 0 6.2 0 a3.1 3.1 0 1 0 -6.2 0zM603.36 370.72 a3.1 3.1 0 1 0 6.2 0 a3.1 3.1 0 1 0 -6.2 0zM576.51 386.22 a3.1 3.1 0 1 0 6.2 0 a3.1 3.1 0 1 0 -6.2 0zM549.66 370.72 a3.1 3.1 0 1 0 6.2 0 a3.1 3.1 0 1 0 -6.2 0zM549.66 339.72 a3.1 3.1 0 1 0 6.2 0 a3.1 3.1 0 1 0 -6.2 0zM576.51 572.22 a3.1 3.1 0 1 0 6.2 0 a3.1 3.1 0 1 0 -6.2 0zM576.51 603.22 a3.1 3.1 0 1 0 6.2 0 a3.1 3.1 0 1 0 -6.2 0zM549.66 618.72 a3.1 3.1 0 1 0 6.2 0 a3.1 3.1 0 1 0 -6.2 0zM630.2 45.22 a3.1 3.1 0 1 0 6.2 0 a3.1 3.1 0 1 0 -6.2 0zM657.05 60.72 a3.1 3.1 0 1 0 6.2 0 a3.1 3.1 0 1 0 -6.2 0zM657.05 91.72 a3.1 3.1 0 1 0 6.2 0 a3.1 3.1 0 1 0 -6.2 0zM630.2 107.22 a3.1 3.1 0 1 0 6.2 0 a3.1 3.1 0 1 0 -6.2 0zM603.36 91.72 a3.1 3.1 0 1 0 6.2 0 a3.1 3.1 0 1 0 -6.2 0zM603.36 60.72 a3.1 3.1 0 1 0 6.2 0 a3.1 3.1 0 1 0 -6.2 0zM630.2 138.22 a3.1 3.1 0 1 0 6.2 0 a3.1 3.1 0 1 0 -6.2 0zM603.36 153.72 a3.1 3.1 0 1 0 6.2 0 a3.1 3.1 0 1 0 -6.2 0zM576.51 138.22 a3.1 3.1 0 1 0 6.2 0 a3.1 3.1 0 1 0 -6.2 0zM576.51 107.22 a3.1 3.1 0 1 0 6.2 0 a3.1 3.1 0 1 0 -6.2 0zM630.2 324.22 a3.1 3.1 0 1 0 6.2 0 a3.1 3.1 0 1 0 -6.2 0zM657.05 339.72 a3.1 3.1 0 1 0 6.2 0 a3.1 3.1 0 1 0 -6.2 0zM657.05 370.72 a3.1 3.1 0 1 0 6.2 0 a3.1 3.1 0 1 0 -6.2 0zM630.2 386.22 a3.1 3.1 0 1 0 6.2 0 a3.1 3.1 0 1 0 -6.2 0zM630.2 510.22 a3.1 3.1 0 1 0 6.2 0 a3.1 3.1 0 1 0 -6.2 0zM657.05 525.72 a3.1 3.1 0 1 0 6.2 0 a3.1 3.1 0 1 0 -6.2 0zM657.05 556.72 a3.1 3.1 0 1 0 6.2 0 a3.1 3.1 0 1 0 -6.2 0zM630.2 572.22 a3.1 3.1 0 1 0 6.2 0 a3.1 3.1 0 1 0 -6.2 0zM603.36 556.72 a3.1 3.1 0 1 0 6.2 0 a3.1 3.1 0 1 0 -6.2 0zM603.36 525.72 a3.1 3.1 0 1 0 6.2 0 a3.1 3.1 0 1 0 -6.2 0zM683.9 107.22 a3.1 3.1 0 1 0 6.2 0 a3.1 3.1 0 1 0 -6.2 0zM683.9 138.22 a3.1 3.1 0 1 0 6.2 0 a3.1 3.1 0 1 0 -6.2 0zM657.05 153.72 a3.1 3.1 0 1 0 6.2 0 a3.1 3.1 0 1 0 -6.2 0zM657.05 277.72 a3.1 3.1 0 1 0 6.2 0 a3.1 3.1 0 1 0 -6.2 0zM683.9 293.22 a3.1 3.1 0 1 0 6.2 0 a3.1 3.1 0 1 0 -6.2 0zM683.9 324.22 a3.1 3.1 0 1 0 6.2 0 a3.1 3.1 0 1 0 -6.2 0zM630.2 293.22 a3.1 3.1 0 1 0 6.2 0 a3.1 3.1 0 1 0 -6.2 0zM683.9 386.22 a3.1 3.1 0 1 0 6.2 0 a3.1 3.1 0 1 0 -6.2 0zM683.9 417.22 a3.1 3.1 0 1 0 6.2 0 a3.1 3.1 0 1 0 -6.2 0zM657.05 432.72 a3.1 3.1 0 1 0 6.2 0 a3.1 3.1 0 1 0 -6.2 0zM630.2 417.22 a3.1 3.1 0 1 0 6.2 0 a3.1 3.1 0 1 0 -6.2 0zM710.75 91.72 a3.1 3.1 0 1 0 6.2 0 a3.1 3.1 0 1 0 -6.2 0zM737.59 107.22 a3.1 3.1 0 1 0 6.2 0 a3.1 3.1 0 1 0 -6.2 0zM737.59 138.22 a3.1 3.1 0 1 0 6.2 0 a3.1 3.1 0 1 0 -6.2 0zM710.75 153.72 a3.1 3.1 0 1 0 6.2 0 a3.1 3.1 0 1 0 -6.2 0zM710.75 277.72 a3.1 3.1 0 1 0 6.2 0 a3.1 3.1 0 1 0 -6.2 0zM737.59 293.22 a3.1 3.1 0 1 0 6.2 0 a3.1 3.1 0 1 0 -6.2 0zM737.59 324.22 a3.1 3.1 0 1 0 6.2 0 a3.1 3.1 0 1 0 -6.2 0zM710.75 339.72 a3.1 3.1 0 1 0 6.2 0 a3.1 3.1 0 1 0 -6.2 0zM764.44 91.72 a3.1 3.1 0 1 0 6.2 0 a3.1 3.1 0 1 0 -6.2 0zM791.29 107.22 a3.1 3.1 0 1 0 6.2 0 a3.1 3.1 0 1 0 -6.2 0zM791.29 138.22 a3.1 3.1 0 1 0 6.2 0 a3.1 3.1 0 1 0 -6.2 0zM764.44 153.72 a3.1 3.1 0 1 0 6.2 0 a3.1 3.1 0 1 0 -6.2 0zM764.44 184.72 a3.1 3.1 0 1 0 6.2 0 a3.1 3.1 0 1 0 -6.2 0zM791.29 200.22 a3.1 3.1 0 1 0 6.2 0 a3.1 3.1 0 1 0 -6.2 0zM791.29 231.22 a3.1 3.1 0 1 0 6.2 0 a3.1 3.1 0 1 0 -6.2 0zM764.44 246.72 a3.1 3.1 0 1 0 6.2 0 a3.1 3.1 0 1 0 -6.2 0zM737.59 231.22 a3.1 3.1 0 1 0 6.2 0 a3.1 3.1 0 1 0 -6.2 0zM737.59 200.22 a3.1 3.1 0 1 0 6.2 0 a3.1 3.1 0 1 0 -6.2 0zM764.44 277.72 a3.1 3.1 0 1 0 6.2 0 a3.1 3.1 0 1 0 -6.2 0zM791.29 293.22 a3.1 3.1 0 1 0 6.2 0 a3.1 3.1 0 1 0 -6.2 0zM791.29 324.22 a3.1 3.1 0 1 0 6.2 0 a3.1 3.1 0 1 0 -6.2 0zM764.44 339.72 a3.1 3.1 0 1 0 6.2 0 a3.1 3.1 0 1 0 -6.2 0zM791.29 417.22 a3.1 3.1 0 1 0 6.2 0 a3.1 3.1 0 1 0 -6.2 0zM818.14 432.72 a3.1 3.1 0 1 0 6.2 0 a3.1 3.1 0 1 0 -6.2 0zM818.14 463.72 a3.1 3.1 0 1 0 6.2 0 a3.1 3.1 0 1 0 -6.2 0zM791.29 479.22 a3.1 3.1 0 1 0 6.2 0 a3.1 3.1 0 1 0 -6.2 0zM764.44 463.72 a3.1 3.1 0 1 0 6.2 0 a3.1 3.1 0 1 0 -6.2 0zM764.44 432.72 a3.1 3.1 0 1 0 6.2 0 a3.1 3.1 0 1 0 -6.2 0zM791.29 510.22 a3.1 3.1 0 1 0 6.2 0 a3.1 3.1 0 1 0 -6.2 0zM764.44 525.72 a3.1 3.1 0 1 0 6.2 0 a3.1 3.1 0 1 0 -6.2 0zM737.59 510.22 a3.1 3.1 0 1 0 6.2 0 a3.1 3.1 0 1 0 -6.2 0zM737.59 479.22 a3.1 3.1 0 1 0 6.2 0 a3.1 3.1 0 1 0 -6.2 0zM844.98 45.22 a3.1 3.1 0 1 0 6.2 0 a3.1 3.1 0 1 0 -6.2 0zM871.83 60.72 a3.1 3.1 0 1 0 6.2 0 a3.1 3.1 0 1 0 -6.2 0zM871.83 91.72 a3.1 3.1 0 1 0 6.2 0 a3.1 3.1 0 1 0 -6.2 0zM844.98 107.22 a3.1 3.1 0 1 0 6.2 0 a3.1 3.1 0 1 0 -6.2 0zM818.14 91.72 a3.1 3.1 0 1 0 6.2 0 a3.1 3.1 0 1 0 -6.2 0zM818.14 60.72 a3.1 3.1 0 1 0 6.2 0 a3.1 3.1 0 1 0 -6.2 0zM844.98 231.22 a3.1 3.1 0 1 0 6.2 0 a3.1 3.1 0 1 0 -6.2 0zM871.83 246.72 a3.1 3.1 0 1 0 6.2 0 a3.1 3.1 0 1 0 -6.2 0zM871.83 277.72 a3.1 3.1 0 1 0 6.2 0 a3.1 3.1 0 1 0 -6.2 0zM844.98 293.22 a3.1 3.1 0 1 0 6.2 0 a3.1 3.1 0 1 0 -6.2 0zM818.14 277.72 a3.1 3.1 0 1 0 6.2 0 a3.1 3.1 0 1 0 -6.2 0zM818.14 246.72 a3.1 3.1 0 1 0 6.2 0 a3.1 3.1 0 1 0 -6.2 0zM844.98 479.22 a3.1 3.1 0 1 0 6.2 0 a3.1 3.1 0 1 0 -6.2 0zM844.98 510.22 a3.1 3.1 0 1 0 6.2 0 a3.1 3.1 0 1 0 -6.2 0zM818.14 525.72 a3.1 3.1 0 1 0 6.2 0 a3.1 3.1 0 1 0 -6.2 0zM871.83 525.72 a3.1 3.1 0 1 0 6.2 0 a3.1 3.1 0 1 0 -6.2 0zM871.83 556.72 a3.1 3.1 0 1 0 6.2 0 a3.1 3.1 0 1 0 -6.2 0zM844.98 572.22 a3.1 3.1 0 1 0 6.2 0 a3.1 3.1 0 1 0 -6.2 0zM818.14 556.72 a3.1 3.1 0 1 0 6.2 0 a3.1 3.1 0 1 0 -6.2 0zM898.68 138.22 a3.1 3.1 0 1 0 6.2 0 a3.1 3.1 0 1 0 -6.2 0zM925.53 153.72 a3.1 3.1 0 1 0 6.2 0 a3.1 3.1 0 1 0 -6.2 0zM925.53 184.72 a3.1 3.1 0 1 0 6.2 0 a3.1 3.1 0 1 0 -6.2 0zM898.68 200.22 a3.1 3.1 0 1 0 6.2 0 a3.1 3.1 0 1 0 -6.2 0zM871.83 184.72 a3.1 3.1 0 1 0 6.2 0 a3.1 3.1 0 1 0 -6.2 0zM871.83 153.72 a3.1 3.1 0 1 0 6.2 0 a3.1 3.1 0 1 0 -6.2 0zM898.68 293.22 a3.1 3.1 0 1 0 6.2 0 a3.1 3.1 0 1 0 -6.2 0zM898.68 324.22 a3.1 3.1 0 1 0 6.2 0 a3.1 3.1 0 1 0 -6.2 0zM871.83 339.72 a3.1 3.1 0 1 0 6.2 0 a3.1 3.1 0 1 0 -6.2 0zM844.98 324.22 a3.1 3.1 0 1 0 6.2 0 a3.1 3.1 0 1 0 -6.2 0zM871.83 370.72 a3.1 3.1 0 1 0 6.2 0 a3.1 3.1 0 1 0 -6.2 0zM898.68 386.22 a3.1 3.1 0 1 0 6.2 0 a3.1 3.1 0 1 0 -6.2 0zM898.68 417.22 a3.1 3.1 0 1 0 6.2 0 a3.1 3.1 0 1 0 -6.2 0zM871.83 432.72 a3.1 3.1 0 1 0 6.2 0 a3.1 3.1 0 1 0 -6.2 0zM844.98 417.22 a3.1 3.1 0 1 0 6.2 0 a3.1 3.1 0 1 0 -6.2 0zM844.98 386.22 a3.1 3.1 0 1 0 6.2 0 a3.1 3.1 0 1 0 -6.2 0zM871.83 463.72 a3.1 3.1 0 1 0 6.2 0 a3.1 3.1 0 1 0 -6.2 0zM898.68 479.22 a3.1 3.1 0 1 0 6.2 0 a3.1 3.1 0 1 0 -6.2 0zM898.68 510.22 a3.1 3.1 0 1 0 6.2 0 a3.1 3.1 0 1 0 -6.2 0zM898.68 572.22 a3.1 3.1 0 1 0 6.2 0 a3.1 3.1 0 1 0 -6.2 0zM898.68 603.22 a3.1 3.1 0 1 0 6.2 0 a3.1 3.1 0 1 0 -6.2 0zM871.83 618.72 a3.1 3.1 0 1 0 6.2 0 a3.1 3.1 0 1 0 -6.2 0zM844.98 603.22 a3.1 3.1 0 1 0 6.2 0 a3.1 3.1 0 1 0 -6.2 0zM925.53 277.72 a3.1 3.1 0 1 0 6.2 0 a3.1 3.1 0 1 0 -6.2 0zM952.37 293.22 a3.1 3.1 0 1 0 6.2 0 a3.1 3.1 0 1 0 -6.2 0zM952.37 324.22 a3.1 3.1 0 1 0 6.2 0 a3.1 3.1 0 1 0 -6.2 0zM925.53 339.72 a3.1 3.1 0 1 0 6.2 0 a3.1 3.1 0 1 0 -6.2 0zM979.22 339.72 a3.1 3.1 0 1 0 6.2 0 a3.1 3.1 0 1 0 -6.2 0zM979.22 370.72 a3.1 3.1 0 1 0 6.2 0 a3.1 3.1 0 1 0 -6.2 0zM952.37 386.22 a3.1 3.1 0 1 0 6.2 0 a3.1 3.1 0 1 0 -6.2 0zM925.53 370.72 a3.1 3.1 0 1 0 6.2 0 a3.1 3.1 0 1 0 -6.2 0zM979.22 91.72 a3.1 3.1 0 1 0 6.2 0 a3.1 3.1 0 1 0 -6.2 0zM1006.07 107.22 a3.1 3.1 0 1 0 6.2 0 a3.1 3.1 0 1 0 -6.2 0zM1006.07 138.22 a3.1 3.1 0 1 0 6.2 0 a3.1 3.1 0 1 0 -6.2 0zM979.22 153.72 a3.1 3.1 0 1 0 6.2 0 a3.1 3.1 0 1 0 -6.2 0zM952.37 138.22 a3.1 3.1 0 1 0 6.2 0 a3.1 3.1 0 1 0 -6.2 0zM952.37 107.22 a3.1 3.1 0 1 0 6.2 0 a3.1 3.1 0 1 0 -6.2 0zM1032.92 153.72 a3.1 3.1 0 1 0 6.2 0 a3.1 3.1 0 1 0 -6.2 0zM1032.92 184.72 a3.1 3.1 0 1 0 6.2 0 a3.1 3.1 0 1 0 -6.2 0zM1006.07 200.22 a3.1 3.1 0 1 0 6.2 0 a3.1 3.1 0 1 0 -6.2 0zM979.22 184.72 a3.1 3.1 0 1 0 6.2 0 a3.1 3.1 0 1 0 -6.2 0zM1006.07 231.22 a3.1 3.1 0 1 0 6.2 0 a3.1 3.1 0 1 0 -6.2 0zM979.22 246.72 a3.1 3.1 0 1 0 6.2 0 a3.1 3.1 0 1 0 -6.2 0zM952.37 231.22 a3.1 3.1 0 1 0 6.2 0 a3.1 3.1 0 1 0 -6.2 0zM952.37 200.22 a3.1 3.1 0 1 0 6.2 0 a3.1 3.1 0 1 0 -6.2 0zM1006.07 324.22 a3.1 3.1 0 1 0 6.2 0 a3.1 3.1 0 1 0 -6.2 0zM1032.92 339.72 a3.1 3.1 0 1 0 6.2 0 a3.1 3.1 0 1 0 -6.2 0zM1032.92 370.72 a3.1 3.1 0 1 0 6.2 0 a3.1 3.1 0 1 0 -6.2 0zM1006.07 386.22 a3.1 3.1 0 1 0 6.2 0 a3.1 3.1 0 1 0 -6.2 0zM1032.92 91.72 a3.1 3.1 0 1 0 6.2 0 a3.1 3.1 0 1 0 -6.2 0zM1059.76 107.22 a3.1 3.1 0 1 0 6.2 0 a3.1 3.1 0 1 0 -6.2 0zM1059.76 138.22 a3.1 3.1 0 1 0 6.2 0 a3.1 3.1 0 1 0 -6.2 0zM1059.76 200.22 a3.1 3.1 0 1 0 6.2 0 a3.1 3.1 0 1 0 -6.2 0zM1059.76 231.22 a3.1 3.1 0 1 0 6.2 0 a3.1 3.1 0 1 0 -6.2 0zM1032.92 246.72 a3.1 3.1 0 1 0 6.2 0 a3.1 3.1 0 1 0 -6.2 0zM1086.61 246.72 a3.1 3.1 0 1 0 6.2 0 a3.1 3.1 0 1 0 -6.2 0zM1086.61 277.72 a3.1 3.1 0 1 0 6.2 0 a3.1 3.1 0 1 0 -6.2 0zM1059.76 293.22 a3.1 3.1 0 1 0 6.2 0 a3.1 3.1 0 1 0 -6.2 0zM1032.92 277.72 a3.1 3.1 0 1 0 6.2 0 a3.1 3.1 0 1 0 -6.2 0zM1086.61 -1.28 a3.1 3.1 0 1 0 6.2 0 a3.1 3.1 0 1 0 -6.2 0zM1113.46 14.22 a3.1 3.1 0 1 0 6.2 0 a3.1 3.1 0 1 0 -6.2 0zM1113.46 45.22 a3.1 3.1 0 1 0 6.2 0 a3.1 3.1 0 1 0 -6.2 0zM1086.61 60.72 a3.1 3.1 0 1 0 6.2 0 a3.1 3.1 0 1 0 -6.2 0zM1059.76 45.22 a3.1 3.1 0 1 0 6.2 0 a3.1 3.1 0 1 0 -6.2 0zM1059.76 14.22 a3.1 3.1 0 1 0 6.2 0 a3.1 3.1 0 1 0 -6.2 0zM1086.61 91.72 a3.1 3.1 0 1 0 6.2 0 a3.1 3.1 0 1 0 -6.2 0zM1113.46 107.22 a3.1 3.1 0 1 0 6.2 0 a3.1 3.1 0 1 0 -6.2 0zM1113.46 138.22 a3.1 3.1 0 1 0 6.2 0 a3.1 3.1 0 1 0 -6.2 0zM1086.61 153.72 a3.1 3.1 0 1 0 6.2 0 a3.1 3.1 0 1 0 -6.2 0zM1113.46 231.22 a3.1 3.1 0 1 0 6.2 0 a3.1 3.1 0 1 0 -6.2 0zM1140.31 246.72 a3.1 3.1 0 1 0 6.2 0 a3.1 3.1 0 1 0 -6.2 0zM1140.31 277.72 a3.1 3.1 0 1 0 6.2 0 a3.1 3.1 0 1 0 -6.2 0zM1113.46 293.22 a3.1 3.1 0 1 0 6.2 0 a3.1 3.1 0 1 0 -6.2 0zM1113.46 324.22 a3.1 3.1 0 1 0 6.2 0 a3.1 3.1 0 1 0 -6.2 0zM1140.31 339.72 a3.1 3.1 0 1 0 6.2 0 a3.1 3.1 0 1 0 -6.2 0zM1140.31 370.72 a3.1 3.1 0 1 0 6.2 0 a3.1 3.1 0 1 0 -6.2 0zM1113.46 386.22 a3.1 3.1 0 1 0 6.2 0 a3.1 3.1 0 1 0 -6.2 0zM1086.61 370.72 a3.1 3.1 0 1 0 6.2 0 a3.1 3.1 0 1 0 -6.2 0zM1086.61 339.72 a3.1 3.1 0 1 0 6.2 0 a3.1 3.1 0 1 0 -6.2 0zM1113.46 417.22 a3.1 3.1 0 1 0 6.2 0 a3.1 3.1 0 1 0 -6.2 0zM1086.61 432.72 a3.1 3.1 0 1 0 6.2 0 a3.1 3.1 0 1 0 -6.2 0zM1059.76 417.22 a3.1 3.1 0 1 0 6.2 0 a3.1 3.1 0 1 0 -6.2 0zM1059.76 386.22 a3.1 3.1 0 1 0 6.2 0 a3.1 3.1 0 1 0 -6.2 0zM1140.31 -1.28 a3.1 3.1 0 1 0 6.2 0 a3.1 3.1 0 1 0 -6.2 0zM1167.15 14.22 a3.1 3.1 0 1 0 6.2 0 a3.1 3.1 0 1 0 -6.2 0zM1167.15 45.22 a3.1 3.1 0 1 0 6.2 0 a3.1 3.1 0 1 0 -6.2 0zM1140.31 60.72 a3.1 3.1 0 1 0 6.2 0 a3.1 3.1 0 1 0 -6.2 0zM1194 60.72 a3.1 3.1 0 1 0 6.2 0 a3.1 3.1 0 1 0 -6.2 0zM1194 91.72 a3.1 3.1 0 1 0 6.2 0 a3.1 3.1 0 1 0 -6.2 0zM1167.15 107.22 a3.1 3.1 0 1 0 6.2 0 a3.1 3.1 0 1 0 -6.2 0zM1140.31 91.72 a3.1 3.1 0 1 0 6.2 0 a3.1 3.1 0 1 0 -6.2 0zM1167.15 138.22 a3.1 3.1 0 1 0 6.2 0 a3.1 3.1 0 1 0 -6.2 0zM1194 153.72 a3.1 3.1 0 1 0 6.2 0 a3.1 3.1 0 1 0 -6.2 0zM1194 184.72 a3.1 3.1 0 1 0 6.2 0 a3.1 3.1 0 1 0 -6.2 0zM1167.15 200.22 a3.1 3.1 0 1 0 6.2 0 a3.1 3.1 0 1 0 -6.2 0zM1140.31 184.72 a3.1 3.1 0 1 0 6.2 0 a3.1 3.1 0 1 0 -6.2 0zM1140.31 153.72 a3.1 3.1 0 1 0 6.2 0 a3.1 3.1 0 1 0 -6.2 0zM1167.15 231.22 a3.1 3.1 0 1 0 6.2 0 a3.1 3.1 0 1 0 -6.2 0zM1113.46 200.22 a3.1 3.1 0 1 0 6.2 0 a3.1 3.1 0 1 0 -6.2 0zM1167.15 386.22 a3.1 3.1 0 1 0 6.2 0 a3.1 3.1 0 1 0 -6.2 0zM1167.15 417.22 a3.1 3.1 0 1 0 6.2 0 a3.1 3.1 0 1 0 -6.2 0zM1140.31 432.72 a3.1 3.1 0 1 0 6.2 0 a3.1 3.1 0 1 0 -6.2 0zM1140.31 556.72 a3.1 3.1 0 1 0 6.2 0 a3.1 3.1 0 1 0 -6.2 0zM1167.15 572.22 a3.1 3.1 0 1 0 6.2 0 a3.1 3.1 0 1 0 -6.2 0zM1167.15 603.22 a3.1 3.1 0 1 0 6.2 0 a3.1 3.1 0 1 0 -6.2 0zM1140.31 618.72 a3.1 3.1 0 1 0 6.2 0 a3.1 3.1 0 1 0 -6.2 0zM1113.46 603.22 a3.1 3.1 0 1 0 6.2 0 a3.1 3.1 0 1 0 -6.2 0zM1113.46 572.22 a3.1 3.1 0 1 0 6.2 0 a3.1 3.1 0 1 0 -6.2 0zM1194 -1.28 a3.1 3.1 0 1 0 6.2 0 a3.1 3.1 0 1 0 -6.2 0zM1220.85 14.22 a3.1 3.1 0 1 0 6.2 0 a3.1 3.1 0 1 0 -6.2 0zM1220.85 45.22 a3.1 3.1 0 1 0 6.2 0 a3.1 3.1 0 1 0 -6.2 0zM1220.85 138.22 a3.1 3.1 0 1 0 6.2 0 a3.1 3.1 0 1 0 -6.2 0zM1247.7 153.72 a3.1 3.1 0 1 0 6.2 0 a3.1 3.1 0 1 0 -6.2 0zM1247.7 184.72 a3.1 3.1 0 1 0 6.2 0 a3.1 3.1 0 1 0 -6.2 0zM1220.85 200.22 a3.1 3.1 0 1 0 6.2 0 a3.1 3.1 0 1 0 -6.2 0zM1220.85 231.22 a3.1 3.1 0 1 0 6.2 0 a3.1 3.1 0 1 0 -6.2 0zM1194 246.72 a3.1 3.1 0 1 0 6.2 0 a3.1 3.1 0 1 0 -6.2 0zM1247.7 246.72 a3.1 3.1 0 1 0 6.2 0 a3.1 3.1 0 1 0 -6.2 0zM1247.7 277.72 a3.1 3.1 0 1 0 6.2 0 a3.1 3.1 0 1 0 -6.2 0zM1220.85 293.22 a3.1 3.1 0 1 0 6.2 0 a3.1 3.1 0 1 0 -6.2 0zM1194 277.72 a3.1 3.1 0 1 0 6.2 0 a3.1 3.1 0 1 0 -6.2 0zM1220.85 324.22 a3.1 3.1 0 1 0 6.2 0 a3.1 3.1 0 1 0 -6.2 0zM1194 339.72 a3.1 3.1 0 1 0 6.2 0 a3.1 3.1 0 1 0 -6.2 0zM1167.15 324.22 a3.1 3.1 0 1 0 6.2 0 a3.1 3.1 0 1 0 -6.2 0zM1167.15 293.22 a3.1 3.1 0 1 0 6.2 0 a3.1 3.1 0 1 0 -6.2 0zM1247.7 339.72 a3.1 3.1 0 1 0 6.2 0 a3.1 3.1 0 1 0 -6.2 0zM1247.7 370.72 a3.1 3.1 0 1 0 6.2 0 a3.1 3.1 0 1 0 -6.2 0zM1220.85 386.22 a3.1 3.1 0 1 0 6.2 0 a3.1 3.1 0 1 0 -6.2 0zM1194 370.72 a3.1 3.1 0 1 0 6.2 0 a3.1 3.1 0 1 0 -6.2 0zM1220.85 510.22 a3.1 3.1 0 1 0 6.2 0 a3.1 3.1 0 1 0 -6.2 0zM1247.7 525.72 a3.1 3.1 0 1 0 6.2 0 a3.1 3.1 0 1 0 -6.2 0zM1247.7 556.72 a3.1 3.1 0 1 0 6.2 0 a3.1 3.1 0 1 0 -6.2 0zM1220.85 572.22 a3.1 3.1 0 1 0 6.2 0 a3.1 3.1 0 1 0 -6.2 0zM1194 556.72 a3.1 3.1 0 1 0 6.2 0 a3.1 3.1 0 1 0 -6.2 0zM1194 525.72 a3.1 3.1 0 1 0 6.2 0 a3.1 3.1 0 1 0 -6.2 0zM1220.85 603.22 a3.1 3.1 0 1 0 6.2 0 a3.1 3.1 0 1 0 -6.2 0zM1194 618.72 a3.1 3.1 0 1 0 6.2 0 a3.1 3.1 0 1 0 -6.2 0zM1274.54 45.22 a3.1 3.1 0 1 0 6.2 0 a3.1 3.1 0 1 0 -6.2 0zM1301.39 60.72 a3.1 3.1 0 1 0 6.2 0 a3.1 3.1 0 1 0 -6.2 0zM1301.39 91.72 a3.1 3.1 0 1 0 6.2 0 a3.1 3.1 0 1 0 -6.2 0zM1274.54 107.22 a3.1 3.1 0 1 0 6.2 0 a3.1 3.1 0 1 0 -6.2 0zM1247.7 91.72 a3.1 3.1 0 1 0 6.2 0 a3.1 3.1 0 1 0 -6.2 0zM1247.7 60.72 a3.1 3.1 0 1 0 6.2 0 a3.1 3.1 0 1 0 -6.2 0zM1274.54 386.22 a3.1 3.1 0 1 0 6.2 0 a3.1 3.1 0 1 0 -6.2 0zM1274.54 417.22 a3.1 3.1 0 1 0 6.2 0 a3.1 3.1 0 1 0 -6.2 0zM1247.7 432.72 a3.1 3.1 0 1 0 6.2 0 a3.1 3.1 0 1 0 -6.2 0zM1220.85 417.22 a3.1 3.1 0 1 0 6.2 0 a3.1 3.1 0 1 0 -6.2 0zM1301.39 432.72 a3.1 3.1 0 1 0 6.2 0 a3.1 3.1 0 1 0 -6.2 0zM1301.39 463.72 a3.1 3.1 0 1 0 6.2 0 a3.1 3.1 0 1 0 -6.2 0zM1274.54 479.22 a3.1 3.1 0 1 0 6.2 0 a3.1 3.1 0 1 0 -6.2 0zM1247.7 463.72 a3.1 3.1 0 1 0 6.2 0 a3.1 3.1 0 1 0 -6.2 0zM1274.54 510.22 a3.1 3.1 0 1 0 6.2 0 a3.1 3.1 0 1 0 -6.2 0zM1301.39 525.72 a3.1 3.1 0 1 0 6.2 0 a3.1 3.1 0 1 0 -6.2 0zM1301.39 556.72 a3.1 3.1 0 1 0 6.2 0 a3.1 3.1 0 1 0 -6.2 0zM1274.54 572.22 a3.1 3.1 0 1 0 6.2 0 a3.1 3.1 0 1 0 -6.2 0zM1274.54 603.22 a3.1 3.1 0 1 0 6.2 0 a3.1 3.1 0 1 0 -6.2 0zM1247.7 618.72 a3.1 3.1 0 1 0 6.2 0 a3.1 3.1 0 1 0 -6.2 0zM1328.24 45.22 a3.1 3.1 0 1 0 6.2 0 a3.1 3.1 0 1 0 -6.2 0zM1355.09 60.72 a3.1 3.1 0 1 0 6.2 0 a3.1 3.1 0 1 0 -6.2 0zM1355.09 91.72 a3.1 3.1 0 1 0 6.2 0 a3.1 3.1 0 1 0 -6.2 0zM1328.24 107.22 a3.1 3.1 0 1 0 6.2 0 a3.1 3.1 0 1 0 -6.2 0zM1328.24 231.22 a3.1 3.1 0 1 0 6.2 0 a3.1 3.1 0 1 0 -6.2 0zM1355.09 246.72 a3.1 3.1 0 1 0 6.2 0 a3.1 3.1 0 1 0 -6.2 0zM1355.09 277.72 a3.1 3.1 0 1 0 6.2 0 a3.1 3.1 0 1 0 -6.2 0zM1328.24 293.22 a3.1 3.1 0 1 0 6.2 0 a3.1 3.1 0 1 0 -6.2 0zM1301.39 277.72 a3.1 3.1 0 1 0 6.2 0 a3.1 3.1 0 1 0 -6.2 0zM1301.39 246.72 a3.1 3.1 0 1 0 6.2 0 a3.1 3.1 0 1 0 -6.2 0zM1301.39 370.72 a3.1 3.1 0 1 0 6.2 0 a3.1 3.1 0 1 0 -6.2 0zM1328.24 386.22 a3.1 3.1 0 1 0 6.2 0 a3.1 3.1 0 1 0 -6.2 0zM1328.24 417.22 a3.1 3.1 0 1 0 6.2 0 a3.1 3.1 0 1 0 -6.2 0zM1328.24 479.22 a3.1 3.1 0 1 0 6.2 0 a3.1 3.1 0 1 0 -6.2 0zM1328.24 510.22 a3.1 3.1 0 1 0 6.2 0 a3.1 3.1 0 1 0 -6.2 0zM1381.94 45.22 a3.1 3.1 0 1 0 6.2 0 a3.1 3.1 0 1 0 -6.2 0zM1408.78 60.72 a3.1 3.1 0 1 0 6.2 0 a3.1 3.1 0 1 0 -6.2 0zM1408.78 91.72 a3.1 3.1 0 1 0 6.2 0 a3.1 3.1 0 1 0 -6.2 0zM1381.94 107.22 a3.1 3.1 0 1 0 6.2 0 a3.1 3.1 0 1 0 -6.2 0zM1381.94 138.22 a3.1 3.1 0 1 0 6.2 0 a3.1 3.1 0 1 0 -6.2 0zM1408.78 153.72 a3.1 3.1 0 1 0 6.2 0 a3.1 3.1 0 1 0 -6.2 0zM1408.78 184.72 a3.1 3.1 0 1 0 6.2 0 a3.1 3.1 0 1 0 -6.2 0zM1381.94 200.22 a3.1 3.1 0 1 0 6.2 0 a3.1 3.1 0 1 0 -6.2 0zM1355.09 184.72 a3.1 3.1 0 1 0 6.2 0 a3.1 3.1 0 1 0 -6.2 0zM1355.09 153.72 a3.1 3.1 0 1 0 6.2 0 a3.1 3.1 0 1 0 -6.2 0zM1381.94 417.22 a3.1 3.1 0 1 0 6.2 0 a3.1 3.1 0 1 0 -6.2 0zM1408.78 432.72 a3.1 3.1 0 1 0 6.2 0 a3.1 3.1 0 1 0 -6.2 0zM1408.78 463.72 a3.1 3.1 0 1 0 6.2 0 a3.1 3.1 0 1 0 -6.2 0zM1381.94 479.22 a3.1 3.1 0 1 0 6.2 0 a3.1 3.1 0 1 0 -6.2 0zM1355.09 463.72 a3.1 3.1 0 1 0 6.2 0 a3.1 3.1 0 1 0 -6.2 0zM1355.09 432.72 a3.1 3.1 0 1 0 6.2 0 a3.1 3.1 0 1 0 -6.2 0zM1381.94 510.22 a3.1 3.1 0 1 0 6.2 0 a3.1 3.1 0 1 0 -6.2 0zM1408.78 525.72 a3.1 3.1 0 1 0 6.2 0 a3.1 3.1 0 1 0 -6.2 0zM1408.78 556.72 a3.1 3.1 0 1 0 6.2 0 a3.1 3.1 0 1 0 -6.2 0zM1381.94 572.22 a3.1 3.1 0 1 0 6.2 0 a3.1 3.1 0 1 0 -6.2 0zM1355.09 556.72 a3.1 3.1 0 1 0 6.2 0 a3.1 3.1 0 1 0 -6.2 0zM1355.09 525.72 a3.1 3.1 0 1 0 6.2 0 a3.1 3.1 0 1 0 -6.2 0zM1381.94 603.22 a3.1 3.1 0 1 0 6.2 0 a3.1 3.1 0 1 0 -6.2 0zM1355.09 618.72 a3.1 3.1 0 1 0 6.2 0 a3.1 3.1 0 1 0 -6.2 0zM1328.24 603.22 a3.1 3.1 0 1 0 6.2 0 a3.1 3.1 0 1 0 -6.2 0zM1328.24 572.22 a3.1 3.1 0 1 0 6.2 0 a3.1 3.1 0 1 0 -6.2 0zM1435.63 138.22 a3.1 3.1 0 1 0 6.2 0 a3.1 3.1 0 1 0 -6.2 0zM1462.48 153.72 a3.1 3.1 0 1 0 6.2 0 a3.1 3.1 0 1 0 -6.2 0zM1462.48 184.72 a3.1 3.1 0 1 0 6.2 0 a3.1 3.1 0 1 0 -6.2 0zM1435.63 200.22 a3.1 3.1 0 1 0 6.2 0 a3.1 3.1 0 1 0 -6.2 0zM1435.63 231.22 a3.1 3.1 0 1 0 6.2 0 a3.1 3.1 0 1 0 -6.2 0zM1462.48 246.72 a3.1 3.1 0 1 0 6.2 0 a3.1 3.1 0 1 0 -6.2 0zM1462.48 277.72 a3.1 3.1 0 1 0 6.2 0 a3.1 3.1 0 1 0 -6.2 0zM1435.63 293.22 a3.1 3.1 0 1 0 6.2 0 a3.1 3.1 0 1 0 -6.2 0zM1408.78 277.72 a3.1 3.1 0 1 0 6.2 0 a3.1 3.1 0 1 0 -6.2 0zM1408.78 246.72 a3.1 3.1 0 1 0 6.2 0 a3.1 3.1 0 1 0 -6.2 0zM1435.63 324.22 a3.1 3.1 0 1 0 6.2 0 a3.1 3.1 0 1 0 -6.2 0zM1408.78 339.72 a3.1 3.1 0 1 0 6.2 0 a3.1 3.1 0 1 0 -6.2 0zM1381.94 324.22 a3.1 3.1 0 1 0 6.2 0 a3.1 3.1 0 1 0 -6.2 0zM1381.94 293.22 a3.1 3.1 0 1 0 6.2 0 a3.1 3.1 0 1 0 -6.2 0zM1435.63 417.22 a3.1 3.1 0 1 0 6.2 0 a3.1 3.1 0 1 0 -6.2 0zM1462.48 432.72 a3.1 3.1 0 1 0 6.2 0 a3.1 3.1 0 1 0 -6.2 0zM1462.48 463.72 a3.1 3.1 0 1 0 6.2 0 a3.1 3.1 0 1 0 -6.2 0zM1435.63 479.22 a3.1 3.1 0 1 0 6.2 0 a3.1 3.1 0 1 0 -6.2 0zM1435.63 572.22 a3.1 3.1 0 1 0 6.2 0 a3.1 3.1 0 1 0 -6.2 0zM1435.63 603.22 a3.1 3.1 0 1 0 6.2 0 a3.1 3.1 0 1 0 -6.2 0zM1408.78 618.72 a3.1 3.1 0 1 0 6.2 0 a3.1 3.1 0 1 0 -6.2 0z" fill="rgba(89, 89, 89, 1)"></path><path d="M0.06 54.15L20.85 66.15L20.85 90.15L0.06 102.15L-20.73 90.15L-20.73 66.15zM0.06 126.15L20.85 138.15L20.85 162.15L0.06 174.15L-20.73 162.15L-20.73 138.15zM20.85 378.15L41.63 390.15L41.63 414.15L20.85 426.15L0.06 414.15L0.06 390.15zM41.63 -17.85L62.42 -5.85L62.42 18.15L41.63 30.15L20.85 18.15L20.85 -5.85zM41.63 198.15L62.42 210.15L62.42 234.15L41.63 246.15L20.85 234.15L20.85 210.15zM41.63 270.15L62.42 282.15L62.42 306.15L41.63 318.15L20.85 306.15L20.85 282.15zM62.42 522.15L83.2 534.15L83.2 558.15L62.42 570.15L41.63 558.15L41.63 534.15zM103.99 18.15L124.77 30.15L124.77 54.15L103.99 66.15L83.2 54.15L83.2 30.15zM83.2 54.15L103.99 66.15L103.99 90.15L83.2 102.15L62.42 90.15L62.42 66.15zM103.99 90.15L124.77 102.15L124.77 126.15L103.99 138.15L83.2 126.15L83.2 102.15zM103.99 162.15L124.77 174.15L124.77 198.15L103.99 210.15L83.2 198.15L83.2 174.15zM83.2 198.15L103.99 210.15L103.99 234.15L83.2 246.15L62.42 234.15L62.42 210.15zM83.2 270.15L103.99 282.15L103.99 306.15L83.2 318.15L62.42 306.15L62.42 282.15zM103.99 522.15L124.77 534.15L124.77 558.15L103.99 570.15L83.2 558.15L83.2 534.15zM124.77 54.15L145.56 66.15L145.56 90.15L124.77 102.15L103.99 90.15L103.99 66.15zM145.56 90.15L166.34 102.15L166.34 126.15L145.56 138.15L124.77 126.15L124.77 102.15zM124.77 126.15L145.56 138.15L145.56 162.15L124.77 174.15L103.99 162.15L103.99 138.15zM124.77 270.15L145.56 282.15L145.56 306.15L124.77 318.15L103.99 306.15L103.99 282.15zM145.56 450.15L166.34 462.15L166.34 486.15L145.56 498.15L124.77 486.15L124.77 462.15zM124.77 558.15L145.56 570.15L145.56 594.15L124.77 606.15L103.99 594.15L103.99 570.15zM187.13 18.15L207.91 30.15L207.91 54.15L187.13 66.15L166.34 54.15L166.34 30.15zM166.34 270.15L187.13 282.15L187.13 306.15L166.34 318.15L145.56 306.15L145.56 282.15zM187.13 378.15L207.91 390.15L207.91 414.15L187.13 426.15L166.34 414.15L166.34 390.15zM166.34 414.15L187.13 426.15L187.13 450.15L166.34 462.15L145.56 450.15L145.56 426.15zM187.13 450.15L207.91 462.15L207.91 486.15L187.13 498.15L166.34 486.15L166.34 462.15zM166.34 558.15L187.13 570.15L187.13 594.15L166.34 606.15L145.56 594.15L145.56 570.15zM207.91 270.15L228.7 282.15L228.7 306.15L207.91 318.15L187.13 306.15L187.13 282.15zM228.7 306.15L249.48 318.15L249.48 342.15L228.7 354.15L207.91 342.15L207.91 318.15zM207.91 414.15L228.7 426.15L228.7 450.15L207.91 462.15L187.13 450.15L187.13 426.15zM228.7 450.15L249.48 462.15L249.48 486.15L228.7 498.15L207.91 486.15L207.91 462.15zM249.48 -17.85L270.27 -5.85L270.27 18.15L249.48 30.15L228.7 18.15L228.7 -5.85zM249.48 270.15L270.27 282.15L270.27 306.15L249.48 318.15L228.7 306.15L228.7 282.15zM249.48 414.15L270.27 426.15L270.27 450.15L249.48 462.15L228.7 450.15L228.7 426.15zM249.48 486.15L270.27 498.15L270.27 522.15L249.48 534.15L228.7 522.15L228.7 498.15zM311.84 18.15L332.62 30.15L332.62 54.15L311.84 66.15L291.05 54.15L291.05 30.15zM291.05 54.15L311.84 66.15L311.84 90.15L291.05 102.15L270.27 90.15L270.27 66.15zM311.84 90.15L332.62 102.15L332.62 126.15L311.84 138.15L291.05 126.15L291.05 102.15zM311.84 162.15L332.62 174.15L332.62 198.15L311.84 210.15L291.05 198.15L291.05 174.15zM291.05 198.15L311.84 210.15L311.84 234.15L291.05 246.15L270.27 234.15L270.27 210.15zM311.84 234.15L332.62 246.15L332.62 270.15L311.84 282.15L291.05 270.15L291.05 246.15zM291.05 342.15L311.84 354.15L311.84 378.15L291.05 390.15L270.27 378.15L270.27 354.15zM291.05 414.15L311.84 426.15L311.84 450.15L291.05 462.15L270.27 450.15L270.27 426.15zM311.84 450.15L332.62 462.15L332.62 486.15L311.84 498.15L291.05 486.15L291.05 462.15zM311.84 522.15L332.62 534.15L332.62 558.15L311.84 570.15L291.05 558.15L291.05 534.15zM291.05 558.15L311.84 570.15L311.84 594.15L291.05 606.15L270.27 594.15L270.27 570.15zM353.41 90.15L374.19 102.15L374.19 126.15L353.41 138.15L332.62 126.15L332.62 102.15zM353.41 234.15L374.19 246.15L374.19 270.15L353.41 282.15L332.62 270.15L332.62 246.15zM332.62 270.15L353.41 282.15L353.41 306.15L332.62 318.15L311.84 306.15L311.84 282.15zM353.41 306.15L374.19 318.15L374.19 342.15L353.41 354.15L332.62 342.15L332.62 318.15zM353.41 378.15L374.19 390.15L374.19 414.15L353.41 426.15L332.62 414.15L332.62 390.15zM394.98 162.15L415.76 174.15L415.76 198.15L394.98 210.15L374.19 198.15L374.19 174.15zM394.98 306.15L415.76 318.15L415.76 342.15L394.98 354.15L374.19 342.15L374.19 318.15zM374.19 414.15L394.98 426.15L394.98 450.15L374.19 462.15L353.41 450.15L353.41 426.15zM394.98 522.15L415.76 534.15L415.76 558.15L394.98 570.15L374.19 558.15L374.19 534.15zM374.19 558.15L394.98 570.15L394.98 594.15L374.19 606.15L353.41 594.15L353.41 570.15zM436.55 18.15L457.33 30.15L457.33 54.15L436.55 66.15L415.76 54.15L415.76 30.15zM436.55 90.15L457.33 102.15L457.33 126.15L436.55 138.15L415.76 126.15L415.76 102.15zM415.76 126.15L436.55 138.15L436.55 162.15L415.76 174.15L394.98 162.15L394.98 138.15zM436.55 162.15L457.33 174.15L457.33 198.15L436.55 210.15L415.76 198.15L415.76 174.15zM436.55 234.15L457.33 246.15L457.33 270.15L436.55 282.15L415.76 270.15L415.76 246.15zM436.55 306.15L457.33 318.15L457.33 342.15L436.55 354.15L415.76 342.15L415.76 318.15zM415.76 414.15L436.55 426.15L436.55 450.15L415.76 462.15L394.98 450.15L394.98 426.15zM415.76 558.15L436.55 570.15L436.55 594.15L415.76 606.15L394.98 594.15L394.98 570.15zM457.33 126.15L478.12 138.15L478.12 162.15L457.33 174.15L436.55 162.15L436.55 138.15zM457.33 198.15L478.12 210.15L478.12 234.15L457.33 246.15L436.55 234.15L436.55 210.15zM457.33 342.15L478.12 354.15L478.12 378.15L457.33 390.15L436.55 378.15L436.55 354.15zM478.12 378.15L498.9 390.15L498.9 414.15L478.12 426.15L457.33 414.15L457.33 390.15zM457.33 414.15L478.12 426.15L478.12 450.15L457.33 462.15L436.55 450.15L436.55 426.15zM457.33 558.15L478.12 570.15L478.12 594.15L457.33 606.15L436.55 594.15L436.55 570.15zM519.69 18.15L540.48 30.15L540.48 54.15L519.69 66.15L498.9 54.15L498.9 30.15zM519.69 90.15L540.48 102.15L540.48 126.15L519.69 138.15L498.9 126.15L498.9 102.15zM519.69 234.15L540.48 246.15L540.48 270.15L519.69 282.15L498.9 270.15L498.9 246.15zM519.69 306.15L540.48 318.15L540.48 342.15L519.69 354.15L498.9 342.15L498.9 318.15zM498.9 414.15L519.69 426.15L519.69 450.15L498.9 462.15L478.12 450.15L478.12 426.15zM519.69 450.15L540.48 462.15L540.48 486.15L519.69 498.15L498.9 486.15L498.9 462.15zM540.48 126.15L561.26 138.15L561.26 162.15L540.48 174.15L519.69 162.15L519.69 138.15zM540.48 198.15L561.26 210.15L561.26 234.15L540.48 246.15L519.69 234.15L519.69 210.15zM540.48 558.15L561.26 570.15L561.26 594.15L540.48 606.15L519.69 594.15L519.69 570.15zM582.05 126.15L602.83 138.15L602.83 162.15L582.05 174.15L561.26 162.15L561.26 138.15zM582.05 198.15L602.83 210.15L602.83 234.15L582.05 246.15L561.26 234.15L561.26 210.15zM582.05 270.15L602.83 282.15L602.83 306.15L582.05 318.15L561.26 306.15L561.26 282.15zM582.05 486.15L602.83 498.15L602.83 522.15L582.05 534.15L561.26 522.15L561.26 498.15zM582.05 558.15L602.83 570.15L602.83 594.15L582.05 606.15L561.26 594.15L561.26 570.15zM644.4 90.15L665.19 102.15L665.19 126.15L644.4 138.15L623.62 126.15L623.62 102.15zM623.62 198.15L644.4 210.15L644.4 234.15L623.62 246.15L602.83 234.15L602.83 210.15zM644.4 306.15L665.19 318.15L665.19 342.15L644.4 354.15L623.62 342.15L623.62 318.15zM623.62 414.15L644.4 426.15L644.4 450.15L623.62 462.15L602.83 450.15L602.83 426.15zM644.4 522.15L665.19 534.15L665.19 558.15L644.4 570.15L623.62 558.15L623.62 534.15zM623.62 558.15L644.4 570.15L644.4 594.15L623.62 606.15L602.83 594.15L602.83 570.15zM685.97 18.15L706.76 30.15L706.76 54.15L685.97 66.15L665.19 54.15L665.19 30.15zM685.97 90.15L706.76 102.15L706.76 126.15L685.97 138.15L665.19 126.15L665.19 102.15zM665.19 126.15L685.97 138.15L685.97 162.15L665.19 174.15L644.4 162.15L644.4 138.15zM685.97 162.15L706.76 174.15L706.76 198.15L685.97 210.15L665.19 198.15L665.19 174.15zM685.97 234.15L706.76 246.15L706.76 270.15L685.97 282.15L665.19 270.15L665.19 246.15zM665.19 342.15L685.97 354.15L685.97 378.15L665.19 390.15L644.4 378.15L644.4 354.15zM685.97 378.15L706.76 390.15L706.76 414.15L685.97 426.15L665.19 414.15L665.19 390.15zM665.19 558.15L685.97 570.15L685.97 594.15L665.19 606.15L644.4 594.15L644.4 570.15zM706.76 -17.85L727.54 -5.85L727.54 18.15L706.76 30.15L685.97 18.15L685.97 -5.85zM727.54 90.15L748.33 102.15L748.33 126.15L727.54 138.15L706.76 126.15L706.76 102.15zM727.54 306.15L748.33 318.15L748.33 342.15L727.54 354.15L706.76 342.15L706.76 318.15zM706.76 342.15L727.54 354.15L727.54 378.15L706.76 390.15L685.97 378.15L685.97 354.15zM727.54 378.15L748.33 390.15L748.33 414.15L727.54 426.15L706.76 414.15L706.76 390.15zM706.76 486.15L727.54 498.15L727.54 522.15L706.76 534.15L685.97 522.15L685.97 498.15zM706.76 558.15L727.54 570.15L727.54 594.15L706.76 606.15L685.97 594.15L685.97 570.15zM748.33 54.15L769.11 66.15L769.11 90.15L748.33 102.15L727.54 90.15L727.54 66.15zM769.11 90.15L789.9 102.15L789.9 126.15L769.11 138.15L748.33 126.15L748.33 102.15zM748.33 198.15L769.11 210.15L769.11 234.15L748.33 246.15L727.54 234.15L727.54 210.15zM769.11 306.15L789.9 318.15L789.9 342.15L769.11 354.15L748.33 342.15L748.33 318.15zM769.11 378.15L789.9 390.15L789.9 414.15L769.11 426.15L748.33 414.15L748.33 390.15zM748.33 414.15L769.11 426.15L769.11 450.15L748.33 462.15L727.54 450.15L727.54 426.15zM769.11 522.15L789.9 534.15L789.9 558.15L769.11 570.15L748.33 558.15L748.33 534.15zM789.9 -17.85L810.68 -5.85L810.68 18.15L789.9 30.15L769.11 18.15L769.11 -5.85zM810.68 90.15L831.47 102.15L831.47 126.15L810.68 138.15L789.9 126.15L789.9 102.15zM789.9 198.15L810.68 210.15L810.68 234.15L789.9 246.15L769.11 234.15L769.11 210.15zM810.68 234.15L831.47 246.15L831.47 270.15L810.68 282.15L789.9 270.15L789.9 246.15zM810.68 306.15L831.47 318.15L831.47 342.15L810.68 354.15L789.9 342.15L789.9 318.15zM810.68 378.15L831.47 390.15L831.47 414.15L810.68 426.15L789.9 414.15L789.9 390.15zM789.9 414.15L810.68 426.15L810.68 450.15L789.9 462.15L769.11 450.15L769.11 426.15zM789.9 558.15L810.68 570.15L810.68 594.15L789.9 606.15L769.11 594.15L769.11 570.15zM852.25 90.15L873.04 102.15L873.04 126.15L852.25 138.15L831.47 126.15L831.47 102.15zM852.25 234.15L873.04 246.15L873.04 270.15L852.25 282.15L831.47 270.15L831.47 246.15zM831.47 270.15L852.25 282.15L852.25 306.15L831.47 318.15L810.68 306.15L810.68 282.15zM852.25 306.15L873.04 318.15L873.04 342.15L852.25 354.15L831.47 342.15L831.47 318.15zM852.25 450.15L873.04 462.15L873.04 486.15L852.25 498.15L831.47 486.15L831.47 462.15zM852.25 522.15L873.04 534.15L873.04 558.15L852.25 570.15L831.47 558.15L831.47 534.15zM831.47 558.15L852.25 570.15L852.25 594.15L831.47 606.15L810.68 594.15L810.68 570.15zM873.04 -17.85L893.82 -5.85L893.82 18.15L873.04 30.15L852.25 18.15L852.25 -5.85zM893.82 18.15L914.61 30.15L914.61 54.15L893.82 66.15L873.04 54.15L873.04 30.15zM893.82 234.15L914.61 246.15L914.61 270.15L893.82 282.15L873.04 270.15L873.04 246.15zM873.04 414.15L893.82 426.15L893.82 450.15L873.04 462.15L852.25 450.15L852.25 426.15zM935.39 18.15L956.18 30.15L956.18 54.15L935.39 66.15L914.61 54.15L914.61 30.15zM935.39 162.15L956.18 174.15L956.18 198.15L935.39 210.15L914.61 198.15L914.61 174.15zM935.39 234.15L956.18 246.15L956.18 270.15L935.39 282.15L914.61 270.15L914.61 246.15zM914.61 342.15L935.39 354.15L935.39 378.15L914.61 390.15L893.82 378.15L893.82 354.15zM935.39 378.15L956.18 390.15L956.18 414.15L935.39 426.15L914.61 414.15L914.61 390.15zM914.61 414.15L935.39 426.15L935.39 450.15L914.61 462.15L893.82 450.15L893.82 426.15zM935.39 450.15L956.18 462.15L956.18 486.15L935.39 498.15L914.61 486.15L914.61 462.15zM914.61 486.15L935.39 498.15L935.39 522.15L914.61 534.15L893.82 522.15L893.82 498.15zM956.18 -17.85L976.96 -5.85L976.96 18.15L956.18 30.15L935.39 18.15L935.39 -5.85zM956.18 126.15L976.96 138.15L976.96 162.15L956.18 174.15L935.39 162.15L935.39 138.15zM976.96 162.15L997.75 174.15L997.75 198.15L976.96 210.15L956.18 198.15L956.18 174.15zM976.96 234.15L997.75 246.15L997.75 270.15L976.96 282.15L956.18 270.15L956.18 246.15zM956.18 342.15L976.96 354.15L976.96 378.15L956.18 390.15L935.39 378.15L935.39 354.15zM956.18 414.15L976.96 426.15L976.96 450.15L956.18 462.15L935.39 450.15L935.39 426.15zM976.96 450.15L997.75 462.15L997.75 486.15L976.96 498.15L956.18 486.15L956.18 462.15zM1018.53 18.15L1039.32 30.15L1039.32 54.15L1018.53 66.15L997.75 54.15L997.75 30.15zM1018.53 162.15L1039.32 174.15L1039.32 198.15L1018.53 210.15L997.75 198.15L997.75 174.15zM997.75 198.15L1018.53 210.15L1018.53 234.15L997.75 246.15L976.96 234.15L976.96 210.15zM1018.53 306.15L1039.32 318.15L1039.32 342.15L1018.53 354.15L997.75 342.15L997.75 318.15zM1018.53 450.15L1039.32 462.15L1039.32 486.15L1018.53 498.15L997.75 486.15L997.75 462.15zM1018.53 522.15L1039.32 534.15L1039.32 558.15L1018.53 570.15L997.75 558.15L997.75 534.15zM1060.11 18.15L1080.89 30.15L1080.89 54.15L1060.11 66.15L1039.32 54.15L1039.32 30.15zM1039.32 198.15L1060.11 210.15L1060.11 234.15L1039.32 246.15L1018.53 234.15L1018.53 210.15zM1060.11 306.15L1080.89 318.15L1080.89 342.15L1060.11 354.15L1039.32 342.15L1039.32 318.15zM1060.11 378.15L1080.89 390.15L1080.89 414.15L1060.11 426.15L1039.32 414.15L1039.32 390.15zM1039.32 414.15L1060.11 426.15L1060.11 450.15L1039.32 462.15L1018.53 450.15L1018.53 426.15zM1101.68 90.15L1122.46 102.15L1122.46 126.15L1101.68 138.15L1080.89 126.15L1080.89 102.15zM1080.89 198.15L1101.68 210.15L1101.68 234.15L1080.89 246.15L1060.11 234.15L1060.11 210.15zM1080.89 270.15L1101.68 282.15L1101.68 306.15L1080.89 318.15L1060.11 306.15L1060.11 282.15zM1080.89 342.15L1101.68 354.15L1101.68 378.15L1080.89 390.15L1060.11 378.15L1060.11 354.15zM1101.68 450.15L1122.46 462.15L1122.46 486.15L1101.68 498.15L1080.89 486.15L1080.89 462.15zM1101.68 522.15L1122.46 534.15L1122.46 558.15L1101.68 570.15L1080.89 558.15L1080.89 534.15zM1122.46 -17.85L1143.25 -5.85L1143.25 18.15L1122.46 30.15L1101.68 18.15L1101.68 -5.85zM1143.25 90.15L1164.03 102.15L1164.03 126.15L1143.25 138.15L1122.46 126.15L1122.46 102.15zM1122.46 126.15L1143.25 138.15L1143.25 162.15L1122.46 174.15L1101.68 162.15L1101.68 138.15zM1143.25 162.15L1164.03 174.15L1164.03 198.15L1143.25 210.15L1122.46 198.15L1122.46 174.15zM1122.46 198.15L1143.25 210.15L1143.25 234.15L1122.46 246.15L1101.68 234.15L1101.68 210.15zM1143.25 234.15L1164.03 246.15L1164.03 270.15L1143.25 282.15L1122.46 270.15L1122.46 246.15zM1122.46 270.15L1143.25 282.15L1143.25 306.15L1122.46 318.15L1101.68 306.15L1101.68 282.15zM1143.25 306.15L1164.03 318.15L1164.03 342.15L1143.25 354.15L1122.46 342.15L1122.46 318.15zM1143.25 378.15L1164.03 390.15L1164.03 414.15L1143.25 426.15L1122.46 414.15L1122.46 390.15zM1122.46 414.15L1143.25 426.15L1143.25 450.15L1122.46 462.15L1101.68 450.15L1101.68 426.15zM1143.25 450.15L1164.03 462.15L1164.03 486.15L1143.25 498.15L1122.46 486.15L1122.46 462.15zM1164.03 126.15L1184.82 138.15L1184.82 162.15L1164.03 174.15L1143.25 162.15L1143.25 138.15zM1164.03 198.15L1184.82 210.15L1184.82 234.15L1164.03 246.15L1143.25 234.15L1143.25 210.15zM1184.82 306.15L1205.6 318.15L1205.6 342.15L1184.82 354.15L1164.03 342.15L1164.03 318.15zM1184.82 378.15L1205.6 390.15L1205.6 414.15L1184.82 426.15L1164.03 414.15L1164.03 390.15zM1184.82 522.15L1205.6 534.15L1205.6 558.15L1184.82 570.15L1164.03 558.15L1164.03 534.15zM1226.39 18.15L1247.17 30.15L1247.17 54.15L1226.39 66.15L1205.6 54.15L1205.6 30.15zM1226.39 90.15L1247.17 102.15L1247.17 126.15L1226.39 138.15L1205.6 126.15L1205.6 102.15zM1205.6 126.15L1226.39 138.15L1226.39 162.15L1205.6 174.15L1184.82 162.15L1184.82 138.15zM1226.39 162.15L1247.17 174.15L1247.17 198.15L1226.39 210.15L1205.6 198.15L1205.6 174.15zM1205.6 270.15L1226.39 282.15L1226.39 306.15L1205.6 318.15L1184.82 306.15L1184.82 282.15zM1205.6 342.15L1226.39 354.15L1226.39 378.15L1205.6 390.15L1184.82 378.15L1184.82 354.15zM1226.39 378.15L1247.17 390.15L1247.17 414.15L1226.39 426.15L1205.6 414.15L1205.6 390.15zM1267.96 18.15L1288.74 30.15L1288.74 54.15L1267.96 66.15L1247.17 54.15L1247.17 30.15zM1267.96 162.15L1288.74 174.15L1288.74 198.15L1267.96 210.15L1247.17 198.15L1247.17 174.15zM1247.17 198.15L1267.96 210.15L1267.96 234.15L1247.17 246.15L1226.39 234.15L1226.39 210.15zM1267.96 234.15L1288.74 246.15L1288.74 270.15L1267.96 282.15L1247.17 270.15L1247.17 246.15zM1267.96 306.15L1288.74 318.15L1288.74 342.15L1267.96 354.15L1247.17 342.15L1247.17 318.15zM1247.17 414.15L1267.96 426.15L1267.96 450.15L1247.17 462.15L1226.39 450.15L1226.39 426.15zM1247.17 486.15L1267.96 498.15L1267.96 522.15L1247.17 534.15L1226.39 522.15L1226.39 498.15zM1267.96 522.15L1288.74 534.15L1288.74 558.15L1267.96 570.15L1247.17 558.15L1247.17 534.15zM1247.17 558.15L1267.96 570.15L1267.96 594.15L1247.17 606.15L1226.39 594.15L1226.39 570.15zM1288.74 -17.85L1309.53 -5.85L1309.53 18.15L1288.74 30.15L1267.96 18.15L1267.96 -5.85zM1288.74 54.15L1309.53 66.15L1309.53 90.15L1288.74 102.15L1267.96 90.15L1267.96 66.15zM1309.53 90.15L1330.31 102.15L1330.31 126.15L1309.53 138.15L1288.74 126.15L1288.74 102.15zM1309.53 234.15L1330.31 246.15L1330.31 270.15L1309.53 282.15L1288.74 270.15L1288.74 246.15zM1288.74 342.15L1309.53 354.15L1309.53 378.15L1288.74 390.15L1267.96 378.15L1267.96 354.15zM1309.53 522.15L1330.31 534.15L1330.31 558.15L1309.53 570.15L1288.74 558.15L1288.74 534.15zM1288.74 558.15L1309.53 570.15L1309.53 594.15L1288.74 606.15L1267.96 594.15L1267.96 570.15zM1351.1 18.15L1371.88 30.15L1371.88 54.15L1351.1 66.15L1330.31 54.15L1330.31 30.15zM1330.31 54.15L1351.1 66.15L1351.1 90.15L1330.31 102.15L1309.53 90.15L1309.53 66.15zM1351.1 90.15L1371.88 102.15L1371.88 126.15L1351.1 138.15L1330.31 126.15L1330.31 102.15zM1351.1 234.15L1371.88 246.15L1371.88 270.15L1351.1 282.15L1330.31 270.15L1330.31 246.15zM1351.1 306.15L1371.88 318.15L1371.88 342.15L1351.1 354.15L1330.31 342.15L1330.31 318.15zM1330.31 486.15L1351.1 498.15L1351.1 522.15L1330.31 534.15L1309.53 522.15L1309.53 498.15zM1371.88 54.15L1392.67 66.15L1392.67 90.15L1371.88 102.15L1351.1 90.15L1351.1 66.15zM1371.88 198.15L1392.67 210.15L1392.67 234.15L1371.88 246.15L1351.1 234.15L1351.1 210.15zM1392.67 378.15L1413.45 390.15L1413.45 414.15L1392.67 426.15L1371.88 414.15L1371.88 390.15zM1371.88 486.15L1392.67 498.15L1392.67 522.15L1371.88 534.15L1351.1 522.15L1351.1 498.15zM1434.24 90.15L1455.02 102.15L1455.02 126.15L1434.24 138.15L1413.45 126.15L1413.45 102.15zM1413.45 126.15L1434.24 138.15L1434.24 162.15L1413.45 174.15L1392.67 162.15L1392.67 138.15zM1434.24 162.15L1455.02 174.15L1455.02 198.15L1434.24 210.15L1413.45 198.15L1413.45 174.15zM1413.45 198.15L1434.24 210.15L1434.24 234.15L1413.45 246.15L1392.67 234.15L1392.67 210.15zM1413.45 270.15L1434.24 282.15L1434.24 306.15L1413.45 318.15L1392.67 306.15L1392.67 282.15zM1434.24 306.15L1455.02 318.15L1455.02 342.15L1434.24 354.15L1413.45 342.15L1413.45 318.15zM1413.45 414.15L1434.24 426.15L1434.24 450.15L1413.45 462.15L1392.67 450.15L1392.67 426.15zM1413.45 486.15L1434.24 498.15L1434.24 522.15L1413.45 534.15L1392.67 522.15L1392.67 498.15zM1434.24 522.15L1455.02 534.15L1455.02 558.15L1434.24 570.15L1413.45 558.15L1413.45 534.15z" stroke="rgba(93, 93, 93, 0.93)" stroke-width="2"></path></g><defs><mask id="SvgjsMask1101"><rect width="1440" height="560" fill="#ffffff"></rect></mask></defs></svg>