<svg xmlns="http://www.w3.org/2000/svg" version="1.1" xmlns:xlink="http://www.w3.org/1999/xlink" xmlns:svgjs="http://svgjs.com/svgjs" width="1440" height="560" preserveAspectRatio="none" viewBox="0 0 1440 560"><g mask="url(&quot;#SvgjsMask1012&quot;)" fill="none"><rect width="1440" height="560" x="0" y="0" fill="rgba(232, 133, 4, 1)"></rect><path d="M160.83 37.43L204.99 62.93L204.99 113.93L160.83 139.43L116.66 113.93L116.66 62.93zM116.66 419.93L160.83 445.43L160.83 496.43L116.66 521.93L72.49 496.43L72.49 445.43zM204.99 -39.07L249.16 -13.57L249.16 37.43L204.99 62.93L160.83 37.43L160.83 -13.57zM293.33 -39.07L337.5 -13.57L337.5 37.43L293.33 62.93L249.16 37.43L249.16 -13.57zM381.67 -39.07L425.84 -13.57L425.84 37.43L381.67 62.93L337.5 37.43L337.5 -13.57zM381.67 266.93L425.84 292.43L425.84 343.43L381.67 368.93L337.5 343.43L337.5 292.43zM425.84 496.43L470.01 521.93L470.01 572.93L425.84 598.43L381.67 572.93L381.67 521.93zM470.01 -39.07L514.17 -13.57L514.17 37.43L470.01 62.93L425.84 37.43L425.84 -13.57zM470.01 266.93L514.17 292.43L514.17 343.43L470.01 368.93L425.84 343.43L425.84 292.43zM690.85 343.43L735.02 368.93L735.02 419.93L690.85 445.43L646.68 419.93L646.68 368.93zM735.02 266.93L779.19 292.43L779.19 343.43L735.02 368.93L690.85 343.43L690.85 292.43zM779.19 496.43L823.35 521.93L823.35 572.93L779.19 598.43L735.02 572.93L735.02 521.93zM823.35 266.93L867.52 292.43L867.52 343.43L823.35 368.93L779.19 343.43L779.19 292.43zM1088.37 -39.07L1132.53 -13.57L1132.53 37.43L1088.37 62.93L1044.2 37.43L1044.2 -13.57zM1088.37 113.93L1132.53 139.43L1132.53 190.43L1088.37 215.93L1044.2 190.43L1044.2 139.43zM1220.87 190.43L1265.04 215.93L1265.04 266.93L1220.87 292.43L1176.7 266.93L1176.7 215.93zM1176.7 266.93L1220.87 292.43L1220.87 343.43L1176.7 368.93L1132.53 343.43L1132.53 292.43z" stroke="rgba(208, 118, 0, 1)" stroke-width="2"></path><path d="M155.73 37.43 a5.1 5.1 0 1 0 10.2 0 a5.1 5.1 0 1 0 -10.2 0zM199.89 62.93 a5.1 5.1 0 1 0 10.2 0 a5.1 5.1 0 1 0 -10.2 0zM199.89 113.93 a5.1 5.1 0 1 0 10.2 0 a5.1 5.1 0 1 0 -10.2 0zM155.73 139.43 a5.1 5.1 0 1 0 10.2 0 a5.1 5.1 0 1 0 -10.2 0zM111.56 113.93 a5.1 5.1 0 1 0 10.2 0 a5.1 5.1 0 1 0 -10.2 0zM111.56 62.93 a5.1 5.1 0 1 0 10.2 0 a5.1 5.1 0 1 0 -10.2 0zM111.56 419.93 a5.1 5.1 0 1 0 10.2 0 a5.1 5.1 0 1 0 -10.2 0zM155.73 445.43 a5.1 5.1 0 1 0 10.2 0 a5.1 5.1 0 1 0 -10.2 0zM155.73 496.43 a5.1 5.1 0 1 0 10.2 0 a5.1 5.1 0 1 0 -10.2 0zM111.56 521.93 a5.1 5.1 0 1 0 10.2 0 a5.1 5.1 0 1 0 -10.2 0zM67.39 496.43 a5.1 5.1 0 1 0 10.2 0 a5.1 5.1 0 1 0 -10.2 0zM67.39 445.43 a5.1 5.1 0 1 0 10.2 0 a5.1 5.1 0 1 0 -10.2 0zM199.89 -39.07 a5.1 5.1 0 1 0 10.2 0 a5.1 5.1 0 1 0 -10.2 0zM244.06 -13.57 a5.1 5.1 0 1 0 10.2 0 a5.1 5.1 0 1 0 -10.2 0zM244.06 37.43 a5.1 5.1 0 1 0 10.2 0 a5.1 5.1 0 1 0 -10.2 0zM155.73 -13.57 a5.1 5.1 0 1 0 10.2 0 a5.1 5.1 0 1 0 -10.2 0zM288.23 -39.07 a5.1 5.1 0 1 0 10.2 0 a5.1 5.1 0 1 0 -10.2 0zM332.4 -13.57 a5.1 5.1 0 1 0 10.2 0 a5.1 5.1 0 1 0 -10.2 0zM332.4 37.43 a5.1 5.1 0 1 0 10.2 0 a5.1 5.1 0 1 0 -10.2 0zM288.23 62.93 a5.1 5.1 0 1 0 10.2 0 a5.1 5.1 0 1 0 -10.2 0zM376.57 -39.07 a5.1 5.1 0 1 0 10.2 0 a5.1 5.1 0 1 0 -10.2 0zM420.74 -13.57 a5.1 5.1 0 1 0 10.2 0 a5.1 5.1 0 1 0 -10.2 0zM420.74 37.43 a5.1 5.1 0 1 0 10.2 0 a5.1 5.1 0 1 0 -10.2 0zM376.57 62.93 a5.1 5.1 0 1 0 10.2 0 a5.1 5.1 0 1 0 -10.2 0zM376.57 266.93 a5.1 5.1 0 1 0 10.2 0 a5.1 5.1 0 1 0 -10.2 0zM420.74 292.43 a5.1 5.1 0 1 0 10.2 0 a5.1 5.1 0 1 0 -10.2 0zM420.74 343.43 a5.1 5.1 0 1 0 10.2 0 a5.1 5.1 0 1 0 -10.2 0zM376.57 368.93 a5.1 5.1 0 1 0 10.2 0 a5.1 5.1 0 1 0 -10.2 0zM332.4 343.43 a5.1 5.1 0 1 0 10.2 0 a5.1 5.1 0 1 0 -10.2 0zM332.4 292.43 a5.1 5.1 0 1 0 10.2 0 a5.1 5.1 0 1 0 -10.2 0zM420.74 496.43 a5.1 5.1 0 1 0 10.2 0 a5.1 5.1 0 1 0 -10.2 0zM464.91 521.93 a5.1 5.1 0 1 0 10.2 0 a5.1 5.1 0 1 0 -10.2 0zM464.91 572.93 a5.1 5.1 0 1 0 10.2 0 a5.1 5.1 0 1 0 -10.2 0zM420.74 598.43 a5.1 5.1 0 1 0 10.2 0 a5.1 5.1 0 1 0 -10.2 0zM376.57 572.93 a5.1 5.1 0 1 0 10.2 0 a5.1 5.1 0 1 0 -10.2 0zM376.57 521.93 a5.1 5.1 0 1 0 10.2 0 a5.1 5.1 0 1 0 -10.2 0zM464.91 -39.07 a5.1 5.1 0 1 0 10.2 0 a5.1 5.1 0 1 0 -10.2 0zM509.07 -13.57 a5.1 5.1 0 1 0 10.2 0 a5.1 5.1 0 1 0 -10.2 0zM509.07 37.43 a5.1 5.1 0 1 0 10.2 0 a5.1 5.1 0 1 0 -10.2 0zM464.91 62.93 a5.1 5.1 0 1 0 10.2 0 a5.1 5.1 0 1 0 -10.2 0zM464.91 266.93 a5.1 5.1 0 1 0 10.2 0 a5.1 5.1 0 1 0 -10.2 0zM509.07 292.43 a5.1 5.1 0 1 0 10.2 0 a5.1 5.1 0 1 0 -10.2 0zM509.07 343.43 a5.1 5.1 0 1 0 10.2 0 a5.1 5.1 0 1 0 -10.2 0zM464.91 368.93 a5.1 5.1 0 1 0 10.2 0 a5.1 5.1 0 1 0 -10.2 0zM685.75 343.43 a5.1 5.1 0 1 0 10.2 0 a5.1 5.1 0 1 0 -10.2 0zM729.92 368.93 a5.1 5.1 0 1 0 10.2 0 a5.1 5.1 0 1 0 -10.2 0zM729.92 419.93 a5.1 5.1 0 1 0 10.2 0 a5.1 5.1 0 1 0 -10.2 0zM685.75 445.43 a5.1 5.1 0 1 0 10.2 0 a5.1 5.1 0 1 0 -10.2 0zM641.58 419.93 a5.1 5.1 0 1 0 10.2 0 a5.1 5.1 0 1 0 -10.2 0zM641.58 368.93 a5.1 5.1 0 1 0 10.2 0 a5.1 5.1 0 1 0 -10.2 0zM729.92 266.93 a5.1 5.1 0 1 0 10.2 0 a5.1 5.1 0 1 0 -10.2 0zM774.09 292.43 a5.1 5.1 0 1 0 10.2 0 a5.1 5.1 0 1 0 -10.2 0zM774.09 343.43 a5.1 5.1 0 1 0 10.2 0 a5.1 5.1 0 1 0 -10.2 0zM685.75 292.43 a5.1 5.1 0 1 0 10.2 0 a5.1 5.1 0 1 0 -10.2 0zM774.09 496.43 a5.1 5.1 0 1 0 10.2 0 a5.1 5.1 0 1 0 -10.2 0zM818.25 521.93 a5.1 5.1 0 1 0 10.2 0 a5.1 5.1 0 1 0 -10.2 0zM818.25 572.93 a5.1 5.1 0 1 0 10.2 0 a5.1 5.1 0 1 0 -10.2 0zM774.09 598.43 a5.1 5.1 0 1 0 10.2 0 a5.1 5.1 0 1 0 -10.2 0zM729.92 572.93 a5.1 5.1 0 1 0 10.2 0 a5.1 5.1 0 1 0 -10.2 0zM729.92 521.93 a5.1 5.1 0 1 0 10.2 0 a5.1 5.1 0 1 0 -10.2 0zM818.25 266.93 a5.1 5.1 0 1 0 10.2 0 a5.1 5.1 0 1 0 -10.2 0zM862.42 292.43 a5.1 5.1 0 1 0 10.2 0 a5.1 5.1 0 1 0 -10.2 0zM862.42 343.43 a5.1 5.1 0 1 0 10.2 0 a5.1 5.1 0 1 0 -10.2 0zM818.25 368.93 a5.1 5.1 0 1 0 10.2 0 a5.1 5.1 0 1 0 -10.2 0zM1083.27 -39.07 a5.1 5.1 0 1 0 10.2 0 a5.1 5.1 0 1 0 -10.2 0zM1127.43 -13.57 a5.1 5.1 0 1 0 10.2 0 a5.1 5.1 0 1 0 -10.2 0zM1127.43 37.43 a5.1 5.1 0 1 0 10.2 0 a5.1 5.1 0 1 0 -10.2 0zM1083.27 62.93 a5.1 5.1 0 1 0 10.2 0 a5.1 5.1 0 1 0 -10.2 0zM1039.1 37.43 a5.1 5.1 0 1 0 10.2 0 a5.1 5.1 0 1 0 -10.2 0zM1039.1 -13.57 a5.1 5.1 0 1 0 10.2 0 a5.1 5.1 0 1 0 -10.2 0zM1083.27 113.93 a5.1 5.1 0 1 0 10.2 0 a5.1 5.1 0 1 0 -10.2 0zM1127.43 139.43 a5.1 5.1 0 1 0 10.2 0 a5.1 5.1 0 1 0 -10.2 0zM1127.43 190.43 a5.1 5.1 0 1 0 10.2 0 a5.1 5.1 0 1 0 -10.2 0zM1083.27 215.93 a5.1 5.1 0 1 0 10.2 0 a5.1 5.1 0 1 0 -10.2 0zM1039.1 190.43 a5.1 5.1 0 1 0 10.2 0 a5.1 5.1 0 1 0 -10.2 0zM1039.1 139.43 a5.1 5.1 0 1 0 10.2 0 a5.1 5.1 0 1 0 -10.2 0zM1215.77 190.43 a5.1 5.1 0 1 0 10.2 0 a5.1 5.1 0 1 0 -10.2 0zM1259.94 215.93 a5.1 5.1 0 1 0 10.2 0 a5.1 5.1 0 1 0 -10.2 0zM1259.94 266.93 a5.1 5.1 0 1 0 10.2 0 a5.1 5.1 0 1 0 -10.2 0zM1215.77 292.43 a5.1 5.1 0 1 0 10.2 0 a5.1 5.1 0 1 0 -10.2 0zM1171.6 266.93 a5.1 5.1 0 1 0 10.2 0 a5.1 5.1 0 1 0 -10.2 0zM1171.6 215.93 a5.1 5.1 0 1 0 10.2 0 a5.1 5.1 0 1 0 -10.2 0zM1215.77 343.43 a5.1 5.1 0 1 0 10.2 0 a5.1 5.1 0 1 0 -10.2 0zM1171.6 368.93 a5.1 5.1 0 1 0 10.2 0 a5.1 5.1 0 1 0 -10.2 0zM1127.43 343.43 a5.1 5.1 0 1 0 10.2 0 a5.1 5.1 0 1 0 -10.2 0zM1127.43 292.43 a5.1 5.1 0 1 0 10.2 0 a5.1 5.1 0 1 0 -10.2 0z" fill="rgba(208, 118, 0, 1)"></path><path d="M38.06 27.12L58.84 39.12L58.84 63.12L38.06 75.12L17.27 63.12L17.27 39.12zM17.27 63.12L38.06 75.12L38.06 99.12L17.27 111.12L-3.52 99.12L-3.52 75.12zM38.06 315.12L58.84 327.12L58.84 351.12L38.06 363.12L17.27 351.12L17.27 327.12zM17.27 351.12L38.06 363.12L38.06 387.12L17.27 399.12L-3.52 387.12L-3.52 363.12zM38.06 387.12L58.84 399.12L58.84 423.12L38.06 435.12L17.27 423.12L17.27 399.12zM79.63 99.12L100.41 111.12L100.41 135.12L79.63 147.12L58.84 135.12L58.84 111.12zM58.84 207.12L79.63 219.12L79.63 243.12L58.84 255.12L38.06 243.12L38.06 219.12zM58.84 351.12L79.63 363.12L79.63 387.12L58.84 399.12L38.06 387.12L38.06 363.12zM121.2 99.12L141.98 111.12L141.98 135.12L121.2 147.12L100.41 135.12L100.41 111.12zM121.2 171.12L141.98 183.12L141.98 207.12L121.2 219.12L100.41 207.12L100.41 183.12zM100.41 279.12L121.2 291.12L121.2 315.12L100.41 327.12L79.63 315.12L79.63 291.12zM121.2 315.12L141.98 327.12L141.98 351.12L121.2 363.12L100.41 351.12L100.41 327.12zM121.2 531.12L141.98 543.12L141.98 567.12L121.2 579.12L100.41 567.12L100.41 543.12zM141.98 63.12L162.77 75.12L162.77 99.12L141.98 111.12L121.2 99.12L121.2 75.12zM162.77 99.12L183.55 111.12L183.55 135.12L162.77 147.12L141.98 135.12L141.98 111.12zM141.98 135.12L162.77 147.12L162.77 171.12L141.98 183.12L121.2 171.12L121.2 147.12zM162.77 243.12L183.55 255.12L183.55 279.12L162.77 291.12L141.98 279.12L141.98 255.12zM141.98 351.12L162.77 363.12L162.77 387.12L141.98 399.12L121.2 387.12L121.2 363.12zM141.98 567.12L162.77 579.12L162.77 603.12L141.98 615.12L121.2 603.12L121.2 579.12zM204.34 27.12L225.12 39.12L225.12 63.12L204.34 75.12L183.55 63.12L183.55 39.12zM204.34 171.12L225.12 183.12L225.12 207.12L204.34 219.12L183.55 207.12L183.55 183.12zM204.34 243.12L225.12 255.12L225.12 279.12L204.34 291.12L183.55 279.12L183.55 255.12zM204.34 459.12L225.12 471.12L225.12 495.12L204.34 507.12L183.55 495.12L183.55 471.12zM183.55 495.12L204.34 507.12L204.34 531.12L183.55 543.12L162.77 531.12L162.77 507.12zM245.91 99.12L266.69 111.12L266.69 135.12L245.91 147.12L225.12 135.12L225.12 111.12zM225.12 135.12L245.91 147.12L245.91 171.12L225.12 183.12L204.34 171.12L204.34 147.12zM245.91 243.12L266.69 255.12L266.69 279.12L245.91 291.12L225.12 279.12L225.12 255.12zM245.91 315.12L266.69 327.12L266.69 351.12L245.91 363.12L225.12 351.12L225.12 327.12zM245.91 531.12L266.69 543.12L266.69 567.12L245.91 579.12L225.12 567.12L225.12 543.12zM225.12 567.12L245.91 579.12L245.91 603.12L225.12 615.12L204.34 603.12L204.34 579.12zM266.69 63.12L287.48 75.12L287.48 99.12L266.69 111.12L245.91 99.12L245.91 75.12zM287.48 171.12L308.26 183.12L308.26 207.12L287.48 219.12L266.69 207.12L266.69 183.12zM287.48 315.12L308.26 327.12L308.26 351.12L287.48 363.12L266.69 351.12L266.69 327.12zM266.69 351.12L287.48 363.12L287.48 387.12L266.69 399.12L245.91 387.12L245.91 363.12zM329.05 99.12L349.83 111.12L349.83 135.12L329.05 147.12L308.26 135.12L308.26 111.12zM308.26 207.12L329.05 219.12L329.05 243.12L308.26 255.12L287.48 243.12L287.48 219.12zM329.05 531.12L349.83 543.12L349.83 567.12L329.05 579.12L308.26 567.12L308.26 543.12zM308.26 567.12L329.05 579.12L329.05 603.12L308.26 615.12L287.48 603.12L287.48 579.12zM349.83 63.12L370.62 75.12L370.62 99.12L349.83 111.12L329.05 99.12L329.05 75.12zM370.62 99.12L391.4 111.12L391.4 135.12L370.62 147.12L349.83 135.12L349.83 111.12zM349.83 135.12L370.62 147.12L370.62 171.12L349.83 183.12L329.05 171.12L329.05 147.12zM349.83 207.12L370.62 219.12L370.62 243.12L349.83 255.12L329.05 243.12L329.05 219.12zM370.62 243.12L391.4 255.12L391.4 279.12L370.62 291.12L349.83 279.12L349.83 255.12zM370.62 531.12L391.4 543.12L391.4 567.12L370.62 579.12L349.83 567.12L349.83 543.12zM391.4 -8.88L412.19 3.12L412.19 27.12L391.4 39.12L370.62 27.12L370.62 3.12zM412.19 27.12L432.97 39.12L432.97 63.12L412.19 75.12L391.4 63.12L391.4 39.12zM391.4 135.12L412.19 147.12L412.19 171.12L391.4 183.12L370.62 171.12L370.62 147.12zM412.19 243.12L432.97 255.12L432.97 279.12L412.19 291.12L391.4 279.12L391.4 255.12zM391.4 279.12L412.19 291.12L412.19 315.12L391.4 327.12L370.62 315.12L370.62 291.12zM391.4 351.12L412.19 363.12L412.19 387.12L391.4 399.12L370.62 387.12L370.62 363.12zM412.19 387.12L432.97 399.12L432.97 423.12L412.19 435.12L391.4 423.12L391.4 399.12zM432.97 -8.88L453.76 3.12L453.76 27.12L432.97 39.12L412.19 27.12L412.19 3.12zM453.76 27.12L474.54 39.12L474.54 63.12L453.76 75.12L432.97 63.12L432.97 39.12zM432.97 63.12L453.76 75.12L453.76 99.12L432.97 111.12L412.19 99.12L412.19 75.12zM453.76 243.12L474.54 255.12L474.54 279.12L453.76 291.12L432.97 279.12L432.97 255.12zM453.76 459.12L474.54 471.12L474.54 495.12L453.76 507.12L432.97 495.12L432.97 471.12zM474.54 135.12L495.33 147.12L495.33 171.12L474.54 183.12L453.76 171.12L453.76 147.12zM495.33 531.12L516.11 543.12L516.11 567.12L495.33 579.12L474.54 567.12L474.54 543.12zM516.11 63.12L536.9 75.12L536.9 99.12L516.11 111.12L495.33 99.12L495.33 75.12zM536.9 99.12L557.69 111.12L557.69 135.12L536.9 147.12L516.11 135.12L516.11 111.12zM536.9 171.12L557.69 183.12L557.69 207.12L536.9 219.12L516.11 207.12L516.11 183.12zM536.9 387.12L557.69 399.12L557.69 423.12L536.9 435.12L516.11 423.12L516.11 399.12zM536.9 531.12L557.69 543.12L557.69 567.12L536.9 579.12L516.11 567.12L516.11 543.12zM557.69 -8.88L578.47 3.12L578.47 27.12L557.69 39.12L536.9 27.12L536.9 3.12zM557.69 495.12L578.47 507.12L578.47 531.12L557.69 543.12L536.9 531.12L536.9 507.12zM599.26 -8.88L620.04 3.12L620.04 27.12L599.26 39.12L578.47 27.12L578.47 3.12zM620.04 99.12L640.83 111.12L640.83 135.12L620.04 147.12L599.26 135.12L599.26 111.12zM599.26 495.12L620.04 507.12L620.04 531.12L599.26 543.12L578.47 531.12L578.47 507.12zM640.83 63.12L661.61 75.12L661.61 99.12L640.83 111.12L620.04 99.12L620.04 75.12zM640.83 135.12L661.61 147.12L661.61 171.12L640.83 183.12L620.04 171.12L620.04 147.12zM661.61 171.12L682.4 183.12L682.4 207.12L661.61 219.12L640.83 207.12L640.83 183.12zM661.61 243.12L682.4 255.12L682.4 279.12L661.61 291.12L640.83 279.12L640.83 255.12zM640.83 351.12L661.61 363.12L661.61 387.12L640.83 399.12L620.04 387.12L620.04 363.12zM661.61 387.12L682.4 399.12L682.4 423.12L661.61 435.12L640.83 423.12L640.83 399.12zM640.83 423.12L661.61 435.12L661.61 459.12L640.83 471.12L620.04 459.12L620.04 435.12zM640.83 495.12L661.61 507.12L661.61 531.12L640.83 543.12L620.04 531.12L620.04 507.12zM661.61 531.12L682.4 543.12L682.4 567.12L661.61 579.12L640.83 567.12L640.83 543.12zM703.18 243.12L723.97 255.12L723.97 279.12L703.18 291.12L682.4 279.12L682.4 255.12zM682.4 495.12L703.18 507.12L703.18 531.12L682.4 543.12L661.61 531.12L661.61 507.12zM682.4 567.12L703.18 579.12L703.18 603.12L682.4 615.12L661.61 603.12L661.61 579.12zM744.75 99.12L765.54 111.12L765.54 135.12L744.75 147.12L723.97 135.12L723.97 111.12zM744.75 243.12L765.54 255.12L765.54 279.12L744.75 291.12L723.97 279.12L723.97 255.12zM744.75 459.12L765.54 471.12L765.54 495.12L744.75 507.12L723.97 495.12L723.97 471.12zM765.54 63.12L786.32 75.12L786.32 99.12L765.54 111.12L744.75 99.12L744.75 75.12zM786.32 171.12L807.11 183.12L807.11 207.12L786.32 219.12L765.54 207.12L765.54 183.12zM786.32 243.12L807.11 255.12L807.11 279.12L786.32 291.12L765.54 279.12L765.54 255.12zM765.54 279.12L786.32 291.12L786.32 315.12L765.54 327.12L744.75 315.12L744.75 291.12zM786.32 315.12L807.11 327.12L807.11 351.12L786.32 363.12L765.54 351.12L765.54 327.12zM786.32 387.12L807.11 399.12L807.11 423.12L786.32 435.12L765.54 423.12L765.54 399.12zM786.32 531.12L807.11 543.12L807.11 567.12L786.32 579.12L765.54 567.12L765.54 543.12zM827.89 99.12L848.68 111.12L848.68 135.12L827.89 147.12L807.11 135.12L807.11 111.12zM807.11 207.12L827.89 219.12L827.89 243.12L807.11 255.12L786.32 243.12L786.32 219.12zM827.89 243.12L848.68 255.12L848.68 279.12L827.89 291.12L807.11 279.12L807.11 255.12zM807.11 279.12L827.89 291.12L827.89 315.12L807.11 327.12L786.32 315.12L786.32 291.12zM827.89 315.12L848.68 327.12L848.68 351.12L827.89 363.12L807.11 351.12L807.11 327.12zM807.11 423.12L827.89 435.12L827.89 459.12L807.11 471.12L786.32 459.12L786.32 435.12zM807.11 495.12L827.89 507.12L827.89 531.12L807.11 543.12L786.32 531.12L786.32 507.12zM827.89 531.12L848.68 543.12L848.68 567.12L827.89 579.12L807.11 567.12L807.11 543.12zM807.11 567.12L827.89 579.12L827.89 603.12L807.11 615.12L786.32 603.12L786.32 579.12zM869.46 27.12L890.25 39.12L890.25 63.12L869.46 75.12L848.68 63.12L848.68 39.12zM848.68 135.12L869.46 147.12L869.46 171.12L848.68 183.12L827.89 171.12L827.89 147.12zM848.68 279.12L869.46 291.12L869.46 315.12L848.68 327.12L827.89 315.12L827.89 291.12zM869.46 315.12L890.25 327.12L890.25 351.12L869.46 363.12L848.68 351.12L848.68 327.12zM869.46 459.12L890.25 471.12L890.25 495.12L869.46 507.12L848.68 495.12L848.68 471.12zM890.25 -8.88L911.03 3.12L911.03 27.12L890.25 39.12L869.46 27.12L869.46 3.12zM890.25 63.12L911.03 75.12L911.03 99.12L890.25 111.12L869.46 99.12L869.46 75.12zM911.03 99.12L931.82 111.12L931.82 135.12L911.03 147.12L890.25 135.12L890.25 111.12zM911.03 171.12L931.82 183.12L931.82 207.12L911.03 219.12L890.25 207.12L890.25 183.12zM911.03 243.12L931.82 255.12L931.82 279.12L911.03 291.12L890.25 279.12L890.25 255.12zM890.25 279.12L911.03 291.12L911.03 315.12L890.25 327.12L869.46 315.12L869.46 291.12zM911.03 315.12L931.82 327.12L931.82 351.12L911.03 363.12L890.25 351.12L890.25 327.12zM911.03 531.12L931.82 543.12L931.82 567.12L911.03 579.12L890.25 567.12L890.25 543.12zM931.82 -8.88L952.6 3.12L952.6 27.12L931.82 39.12L911.03 27.12L911.03 3.12zM952.6 99.12L973.39 111.12L973.39 135.12L952.6 147.12L931.82 135.12L931.82 111.12zM931.82 135.12L952.6 147.12L952.6 171.12L931.82 183.12L911.03 171.12L911.03 147.12zM952.6 171.12L973.39 183.12L973.39 207.12L952.6 219.12L931.82 207.12L931.82 183.12zM931.82 279.12L952.6 291.12L952.6 315.12L931.82 327.12L911.03 315.12L911.03 291.12zM952.6 459.12L973.39 471.12L973.39 495.12L952.6 507.12L931.82 495.12L931.82 471.12zM931.82 495.12L952.6 507.12L952.6 531.12L931.82 543.12L911.03 531.12L911.03 507.12zM931.82 567.12L952.6 579.12L952.6 603.12L931.82 615.12L911.03 603.12L911.03 579.12zM973.39 -8.88L994.17 3.12L994.17 27.12L973.39 39.12L952.6 27.12L952.6 3.12zM994.17 171.12L1014.96 183.12L1014.96 207.12L994.17 219.12L973.39 207.12L973.39 183.12zM973.39 207.12L994.17 219.12L994.17 243.12L973.39 255.12L952.6 243.12L952.6 219.12zM973.39 351.12L994.17 363.12L994.17 387.12L973.39 399.12L952.6 387.12L952.6 363.12zM994.17 387.12L1014.96 399.12L1014.96 423.12L994.17 435.12L973.39 423.12L973.39 399.12zM1014.96 135.12L1035.74 147.12L1035.74 171.12L1014.96 183.12L994.17 171.12L994.17 147.12zM1014.96 207.12L1035.74 219.12L1035.74 243.12L1014.96 255.12L994.17 243.12L994.17 219.12zM1014.96 351.12L1035.74 363.12L1035.74 387.12L1014.96 399.12L994.17 387.12L994.17 363.12zM1035.74 459.12L1056.53 471.12L1056.53 495.12L1035.74 507.12L1014.96 495.12L1014.96 471.12zM1035.74 531.12L1056.53 543.12L1056.53 567.12L1035.74 579.12L1014.96 567.12L1014.96 543.12zM1014.96 567.12L1035.74 579.12L1035.74 603.12L1014.96 615.12L994.17 603.12L994.17 579.12zM1077.32 27.12L1098.1 39.12L1098.1 63.12L1077.32 75.12L1056.53 63.12L1056.53 39.12zM1056.53 207.12L1077.32 219.12L1077.32 243.12L1056.53 255.12L1035.74 243.12L1035.74 219.12zM1056.53 567.12L1077.32 579.12L1077.32 603.12L1056.53 615.12L1035.74 603.12L1035.74 579.12zM1118.89 27.12L1139.67 39.12L1139.67 63.12L1118.89 75.12L1098.1 63.12L1098.1 39.12zM1098.1 63.12L1118.89 75.12L1118.89 99.12L1098.1 111.12L1077.32 99.12L1077.32 75.12zM1118.89 99.12L1139.67 111.12L1139.67 135.12L1118.89 147.12L1098.1 135.12L1098.1 111.12zM1118.89 171.12L1139.67 183.12L1139.67 207.12L1118.89 219.12L1098.1 207.12L1098.1 183.12zM1098.1 207.12L1118.89 219.12L1118.89 243.12L1098.1 255.12L1077.32 243.12L1077.32 219.12zM1098.1 279.12L1118.89 291.12L1118.89 315.12L1098.1 327.12L1077.32 315.12L1077.32 291.12zM1118.89 387.12L1139.67 399.12L1139.67 423.12L1118.89 435.12L1098.1 423.12L1098.1 399.12zM1160.46 27.12L1181.24 39.12L1181.24 63.12L1160.46 75.12L1139.67 63.12L1139.67 39.12zM1139.67 63.12L1160.46 75.12L1160.46 99.12L1139.67 111.12L1118.89 99.12L1118.89 75.12zM1139.67 207.12L1160.46 219.12L1160.46 243.12L1139.67 255.12L1118.89 243.12L1118.89 219.12zM1160.46 315.12L1181.24 327.12L1181.24 351.12L1160.46 363.12L1139.67 351.12L1139.67 327.12zM1139.67 351.12L1160.46 363.12L1160.46 387.12L1139.67 399.12L1118.89 387.12L1118.89 363.12zM1181.24 63.12L1202.03 75.12L1202.03 99.12L1181.24 111.12L1160.46 99.12L1160.46 75.12zM1181.24 279.12L1202.03 291.12L1202.03 315.12L1181.24 327.12L1160.46 315.12L1160.46 291.12zM1202.03 459.12L1222.81 471.12L1222.81 495.12L1202.03 507.12L1181.24 495.12L1181.24 471.12zM1181.24 495.12L1202.03 507.12L1202.03 531.12L1181.24 543.12L1160.46 531.12L1160.46 507.12zM1202.03 531.12L1222.81 543.12L1222.81 567.12L1202.03 579.12L1181.24 567.12L1181.24 543.12zM1222.81 63.12L1243.6 75.12L1243.6 99.12L1222.81 111.12L1202.03 99.12L1202.03 75.12zM1222.81 207.12L1243.6 219.12L1243.6 243.12L1222.81 255.12L1202.03 243.12L1202.03 219.12zM1243.6 243.12L1264.38 255.12L1264.38 279.12L1243.6 291.12L1222.81 279.12L1222.81 255.12zM1243.6 315.12L1264.38 327.12L1264.38 351.12L1243.6 363.12L1222.81 351.12L1222.81 327.12zM1222.81 423.12L1243.6 435.12L1243.6 459.12L1222.81 471.12L1202.03 459.12L1202.03 435.12zM1243.6 459.12L1264.38 471.12L1264.38 495.12L1243.6 507.12L1222.81 495.12L1222.81 471.12zM1285.17 27.12L1305.95 39.12L1305.95 63.12L1285.17 75.12L1264.38 63.12L1264.38 39.12zM1264.38 351.12L1285.17 363.12L1285.17 387.12L1264.38 399.12L1243.6 387.12L1243.6 363.12zM1264.38 495.12L1285.17 507.12L1285.17 531.12L1264.38 543.12L1243.6 531.12L1243.6 507.12zM1285.17 531.12L1305.95 543.12L1305.95 567.12L1285.17 579.12L1264.38 567.12L1264.38 543.12zM1305.95 -8.88L1326.74 3.12L1326.74 27.12L1305.95 39.12L1285.17 27.12L1285.17 3.12zM1326.74 99.12L1347.52 111.12L1347.52 135.12L1326.74 147.12L1305.95 135.12L1305.95 111.12zM1326.74 315.12L1347.52 327.12L1347.52 351.12L1326.74 363.12L1305.95 351.12L1305.95 327.12zM1326.74 387.12L1347.52 399.12L1347.52 423.12L1326.74 435.12L1305.95 423.12L1305.95 399.12zM1326.74 459.12L1347.52 471.12L1347.52 495.12L1326.74 507.12L1305.95 495.12L1305.95 471.12zM1347.52 279.12L1368.31 291.12L1368.31 315.12L1347.52 327.12L1326.74 315.12L1326.74 291.12zM1347.52 351.12L1368.31 363.12L1368.31 387.12L1347.52 399.12L1326.74 387.12L1326.74 363.12zM1347.52 423.12L1368.31 435.12L1368.31 459.12L1347.52 471.12L1326.74 459.12L1326.74 435.12zM1409.88 243.12L1430.66 255.12L1430.66 279.12L1409.88 291.12L1389.09 279.12L1389.09 255.12zM1389.09 279.12L1409.88 291.12L1409.88 315.12L1389.09 327.12L1368.31 315.12L1368.31 291.12zM1409.88 387.12L1430.66 399.12L1430.66 423.12L1409.88 435.12L1389.09 423.12L1389.09 399.12zM1409.88 459.12L1430.66 471.12L1430.66 495.12L1409.88 507.12L1389.09 495.12L1389.09 471.12zM1389.09 495.12L1409.88 507.12L1409.88 531.12L1389.09 543.12L1368.31 531.12L1368.31 507.12zM1451.45 27.12L1472.23 39.12L1472.23 63.12L1451.45 75.12L1430.66 63.12L1430.66 39.12zM1430.66 63.12L1451.45 75.12L1451.45 99.12L1430.66 111.12L1409.88 99.12L1409.88 75.12zM1451.45 99.12L1472.23 111.12L1472.23 135.12L1451.45 147.12L1430.66 135.12L1430.66 111.12zM1430.66 135.12L1451.45 147.12L1451.45 171.12L1430.66 183.12L1409.88 171.12L1409.88 147.12zM1451.45 243.12L1472.23 255.12L1472.23 279.12L1451.45 291.12L1430.66 279.12L1430.66 255.12zM1451.45 315.12L1472.23 327.12L1472.23 351.12L1451.45 363.12L1430.66 351.12L1430.66 327.12zM1451.45 387.12L1472.23 399.12L1472.23 423.12L1451.45 435.12L1430.66 423.12L1430.66 399.12zM1430.66 495.12L1451.45 507.12L1451.45 531.12L1430.66 543.12L1409.88 531.12L1409.88 507.12zM1430.66 567.12L1451.45 579.12L1451.45 603.12L1430.66 615.12L1409.88 603.12L1409.88 579.12z" stroke="rgba(213, 125, 9, 1)" stroke-width="2"></path></g><defs><mask id="SvgjsMask1012"><rect width="1440" height="560" fill="#ffffff"></rect></mask></defs></svg>