<svg id="visual" viewBox="0 0 1920 1080" width="1920" height="1080" xmlns="http://www.w3.org/2000/svg" xmlns:xlink="http://www.w3.org/1999/xlink" version="1.1"><rect x="0" y="0" width="1920" height="1080" fill="#c05c2c"></rect><path d="M0 120L101 146L202 250L303 341L404 395L505 236L606 423L707 284L808 126L909 182L1011 160L1112 210L1213 108L1314 347L1415 240L1516 283L1617 409L1718 370L1819 257L1920 249L1920 1081L1819 1081L1718 1081L1617 1081L1516 1081L1415 1081L1314 1081L1213 1081L1112 1081L1011 1081L909 1081L808 1081L707 1081L606 1081L505 1081L404 1081L303 1081L202 1081L101 1081L0 1081Z" fill="#b44511"></path><path d="M0 216L101 450L202 286L303 346L404 395L505 275L606 257L707 426L808 402L909 216L1011 349L1112 436L1213 450L1314 394L1415 224L1516 465L1617 253L1718 471L1819 386L1920 263L1920 1081L1819 1081L1718 1081L1617 1081L1516 1081L1415 1081L1314 1081L1213 1081L1112 1081L1011 1081L909 1081L808 1081L707 1081L606 1081L505 1081L404 1081L303 1081L202 1081L101 1081L0 1081Z" fill="#aa3e12"></path><path d="M0 406L101 325L202 305L303 450L404 536L505 265L606 515L707 330L808 426L909 396L1011 352L1112 512L1213 509L1314 366L1415 282L1516 347L1617 432L1718 465L1819 301L1920 372L1920 1081L1819 1081L1718 1081L1617 1081L1516 1081L1415 1081L1314 1081L1213 1081L1112 1081L1011 1081L909 1081L808 1081L707 1081L606 1081L505 1081L404 1081L303 1081L202 1081L101 1081L0 1081Z" fill="#a03712"></path><path d="M0 542L101 523L202 358L303 529L404 431L505 345L606 494L707 412L808 490L909 518L1011 563L1112 448L1213 499L1314 350L1415 510L1516 554L1617 347L1718 509L1819 434L1920 390L1920 1081L1819 1081L1718 1081L1617 1081L1516 1081L1415 1081L1314 1081L1213 1081L1112 1081L1011 1081L909 1081L808 1081L707 1081L606 1081L505 1081L404 1081L303 1081L202 1081L101 1081L0 1081Z" fill="#963012"></path><path d="M0 552L101 634L202 489L303 422L404 577L505 579L606 563L707 422L808 647L909 506L1011 448L1112 420L1213 502L1314 432L1415 603L1516 546L1617 568L1718 535L1819 532L1920 587L1920 1081L1819 1081L1718 1081L1617 1081L1516 1081L1415 1081L1314 1081L1213 1081L1112 1081L1011 1081L909 1081L808 1081L707 1081L606 1081L505 1081L404 1081L303 1081L202 1081L101 1081L0 1081Z" fill="#8c2912"></path><path d="M0 568L101 549L202 597L303 561L404 502L505 498L606 559L707 691L808 513L909 699L1011 672L1112 581L1213 688L1314 587L1415 671L1516 630L1617 488L1718 606L1819 669L1920 695L1920 1081L1819 1081L1718 1081L1617 1081L1516 1081L1415 1081L1314 1081L1213 1081L1112 1081L1011 1081L909 1081L808 1081L707 1081L606 1081L505 1081L404 1081L303 1081L202 1081L101 1081L0 1081Z" fill="#822211"></path><path d="M0 640L101 684L202 732L303 666L404 666L505 642L606 730L707 641L808 632L909 701L1011 639L1112 715L1213 704L1314 663L1415 645L1516 710L1617 628L1718 572L1819 644L1920 590L1920 1081L1819 1081L1718 1081L1617 1081L1516 1081L1415 1081L1314 1081L1213 1081L1112 1081L1011 1081L909 1081L808 1081L707 1081L606 1081L505 1081L404 1081L303 1081L202 1081L101 1081L0 1081Z" fill="#781c10"></path><path d="M0 806L101 763L202 742L303 729L404 691L505 764L606 811L707 699L808 716L909 812L1011 785L1112 657L1213 802L1314 643L1415 793L1516 645L1617 788L1718 658L1819 734L1920 814L1920 1081L1819 1081L1718 1081L1617 1081L1516 1081L1415 1081L1314 1081L1213 1081L1112 1081L1011 1081L909 1081L808 1081L707 1081L606 1081L505 1081L404 1081L303 1081L202 1081L101 1081L0 1081Z" fill="#6e160f"></path><path d="M0 763L101 797L202 802L303 731L404 761L505 842L606 858L707 799L808 875L909 842L1011 791L1112 721L1213 764L1314 864L1415 765L1516 829L1617 765L1718 755L1819 843L1920 788L1920 1081L1819 1081L1718 1081L1617 1081L1516 1081L1415 1081L1314 1081L1213 1081L1112 1081L1011 1081L909 1081L808 1081L707 1081L606 1081L505 1081L404 1081L303 1081L202 1081L101 1081L0 1081Z" fill="#640f0d"></path><path d="M0 878L101 917L202 920L303 866L404 794L505 916L606 795L707 890L808 891L909 884L1011 863L1112 931L1213 921L1314 898L1415 910L1516 815L1617 928L1718 909L1819 847L1920 808L1920 1081L1819 1081L1718 1081L1617 1081L1516 1081L1415 1081L1314 1081L1213 1081L1112 1081L1011 1081L909 1081L808 1081L707 1081L606 1081L505 1081L404 1081L303 1081L202 1081L101 1081L0 1081Z" fill="#5a0909"></path><path d="M0 942L101 894L202 920L303 898L404 912L505 906L606 957L707 955L808 955L909 878L1011 986L1112 956L1213 880L1314 931L1415 904L1516 975L1617 878L1718 911L1819 907L1920 971L1920 1081L1819 1081L1718 1081L1617 1081L1516 1081L1415 1081L1314 1081L1213 1081L1112 1081L1011 1081L909 1081L808 1081L707 1081L606 1081L505 1081L404 1081L303 1081L202 1081L101 1081L0 1081Z" fill="#500405"></path><path d="M0 986L101 999L202 968L303 1044L404 1018L505 1003L606 946L707 980L808 970L909 993L1011 999L1112 1019L1213 983L1314 1039L1415 975L1516 964L1617 984L1718 993L1819 947L1920 1044L1920 1081L1819 1081L1718 1081L1617 1081L1516 1081L1415 1081L1314 1081L1213 1081L1112 1081L1011 1081L909 1081L808 1081L707 1081L606 1081L505 1081L404 1081L303 1081L202 1081L101 1081L0 1081Z" fill="#470000"></path></svg>