<svg id="visual" viewBox="0 0 900 600" width="900" height="600" xmlns="http://www.w3.org/2000/svg" xmlns:xlink="http://www.w3.org/1999/xlink" version="1.1"><rect x="0" y="0" width="900" height="600" fill="#bbdcec"></rect><path d="M0 188L39 156L78 167L117 175L157 93L196 69L235 117L274 127L313 170L352 183L391 76L430 89L470 184L509 127L548 49L587 179L626 86L665 131L704 80L743 96L783 167L822 157L861 94L900 124L900 601L861 601L822 601L783 601L743 601L704 601L665 601L626 601L587 601L548 601L509 601L470 601L430 601L391 601L352 601L313 601L274 601L235 601L196 601L157 601L117 601L78 601L39 601L0 601Z" fill="#ffffff"></path><path d="M0 169L39 209L78 167L117 177L157 99L196 214L235 163L274 197L313 208L352 119L391 148L430 168L470 119L509 226L548 105L587 104L626 173L665 207L704 218L743 103L783 225L822 177L861 188L900 160L900 601L861 601L822 601L783 601L743 601L704 601L665 601L626 601L587 601L548 601L509 601L470 601L430 601L391 601L352 601L313 601L274 601L235 601L196 601L157 601L117 601L78 601L39 601L0 601Z" fill="#fafafa"></path><path d="M0 233L39 247L78 248L117 213L157 246L196 248L235 230L274 139L313 262L352 230L391 224L430 187L470 201L509 263L548 229L587 218L626 212L665 192L704 192L743 207L783 238L822 147L861 190L900 237L900 601L861 601L822 601L783 601L743 601L704 601L665 601L626 601L587 601L548 601L509 601L470 601L430 601L391 601L352 601L313 601L274 601L235 601L196 601L157 601L117 601L78 601L39 601L0 601Z" fill="#f4f4f4"></path><path d="M0 244L39 268L78 290L117 286L157 297L196 251L235 292L274 190L313 277L352 197L391 218L430 245L470 211L509 292L548 229L587 233L626 188L665 284L704 201L743 242L783 227L822 188L861 247L900 186L900 601L861 601L822 601L783 601L743 601L704 601L665 601L626 601L587 601L548 601L509 601L470 601L430 601L391 601L352 601L313 601L274 601L235 601L196 601L157 601L117 601L78 601L39 601L0 601Z" fill="#efefef"></path><path d="M0 271L39 225L78 244L117 241L157 334L196 271L235 335L274 288L313 331L352 335L391 291L430 330L470 243L509 309L548 260L587 280L626 283L665 252L704 279L743 303L783 236L822 272L861 331L900 307L900 601L861 601L822 601L783 601L743 601L704 601L665 601L626 601L587 601L548 601L509 601L470 601L430 601L391 601L352 601L313 601L274 601L235 601L196 601L157 601L117 601L78 601L39 601L0 601Z" fill="#eaeaea"></path><path d="M0 348L39 335L78 324L117 369L157 330L196 349L235 331L274 283L313 299L352 369L391 306L430 352L470 331L509 271L548 370L587 323L626 308L665 317L704 292L743 322L783 297L822 351L861 332L900 290L900 601L861 601L822 601L783 601L743 601L704 601L665 601L626 601L587 601L548 601L509 601L470 601L430 601L391 601L352 601L313 601L274 601L235 601L196 601L157 601L117 601L78 601L39 601L0 601Z" fill="#e5e5e5"></path><path d="M0 331L39 315L78 402L117 320L157 367L196 378L235 368L274 320L313 338L352 338L391 348L430 333L470 350L509 381L548 379L587 388L626 332L665 333L704 387L743 332L783 401L822 388L861 398L900 378L900 601L861 601L822 601L783 601L743 601L704 601L665 601L626 601L587 601L548 601L509 601L470 601L430 601L391 601L352 601L313 601L274 601L235 601L196 601L157 601L117 601L78 601L39 601L0 601Z" fill="#dfdfdf"></path><path d="M0 358L39 360L78 396L117 370L157 357L196 385L235 412L274 376L313 437L352 402L391 398L430 406L470 370L509 439L548 377L587 387L626 370L665 363L704 352L743 423L783 403L822 439L861 425L900 364L900 601L861 601L822 601L783 601L743 601L704 601L665 601L626 601L587 601L548 601L509 601L470 601L430 601L391 601L352 601L313 601L274 601L235 601L196 601L157 601L117 601L78 601L39 601L0 601Z" fill="#dadada"></path><path d="M0 423L39 451L78 423L117 441L157 419L196 439L235 417L274 415L313 464L352 447L391 417L430 435L470 446L509 459L548 465L587 456L626 425L665 435L704 468L743 426L783 430L822 410L861 444L900 446L900 601L861 601L822 601L783 601L743 601L704 601L665 601L626 601L587 601L548 601L509 601L470 601L430 601L391 601L352 601L313 601L274 601L235 601L196 601L157 601L117 601L78 601L39 601L0 601Z" fill="#d5d5d5"></path><path d="M0 487L39 507L78 440L117 464L157 472L196 492L235 444L274 452L313 458L352 507L391 456L430 490L470 442L509 470L548 481L587 495L626 456L665 484L704 472L743 474L783 474L822 504L861 467L900 467L900 601L861 601L822 601L783 601L743 601L704 601L665 601L626 601L587 601L548 601L509 601L470 601L430 601L391 601L352 601L313 601L274 601L235 601L196 601L157 601L117 601L78 601L39 601L0 601Z" fill="#cfcfcf"></path><path d="M0 541L39 511L78 528L117 540L157 495L196 498L235 501L274 536L313 514L352 504L391 499L430 536L470 504L509 533L548 484L587 515L626 533L665 504L704 502L743 520L783 534L822 492L861 523L900 489L900 601L861 601L822 601L783 601L743 601L704 601L665 601L626 601L587 601L548 601L509 601L470 601L430 601L391 601L352 601L313 601L274 601L235 601L196 601L157 601L117 601L78 601L39 601L0 601Z" fill="#cacaca"></path><path d="M0 533L39 580L78 539L117 547L157 537L196 540L235 572L274 567L313 529L352 544L391 573L430 565L470 549L509 546L548 529L587 551L626 558L665 549L704 561L743 561L783 553L822 570L861 552L900 525L900 601L861 601L822 601L783 601L743 601L704 601L665 601L626 601L587 601L548 601L509 601L470 601L430 601L391 601L352 601L313 601L274 601L235 601L196 601L157 601L117 601L78 601L39 601L0 601Z" fill="#c5c5c5"></path></svg>