<svg id="visual" viewBox="0 0 900 600" width="900" height="600" xmlns="http://www.w3.org/2000/svg" xmlns:xlink="http://www.w3.org/1999/xlink" version="1.1"><rect x="0" y="0" width="900" height="600" fill="#f4f4f4"></rect><path d="M0 92L43 155L86 106L129 72L171 131L214 68L257 152L300 121L343 141L386 139L429 65L471 98L514 179L557 158L600 81L643 64L686 90L729 161L771 91L814 157L857 138L900 109L900 601L857 601L814 601L771 601L729 601L686 601L643 601L600 601L557 601L514 601L471 601L429 601L386 601L343 601L300 601L257 601L214 601L171 601L129 601L86 601L43 601L0 601Z" fill="#ffffff"></path><path d="M0 144L43 205L86 170L129 106L171 195L214 135L257 142L300 136L343 154L386 185L429 150L471 166L514 124L557 160L600 110L643 207L686 112L729 114L771 116L814 173L857 121L900 168L900 601L857 601L814 601L771 601L729 601L686 601L643 601L600 601L557 601L514 601L471 601L429 601L386 601L343 601L300 601L257 601L214 601L171 601L129 601L86 601L43 601L0 601Z" fill="#fafafa"></path><path d="M0 159L43 234L86 250L129 241L171 198L214 210L257 154L300 238L343 249L386 219L429 244L471 198L514 153L557 248L600 230L643 231L686 179L729 200L771 183L814 232L857 251L900 154L900 601L857 601L814 601L771 601L729 601L686 601L643 601L600 601L557 601L514 601L471 601L429 601L386 601L343 601L300 601L257 601L214 601L171 601L129 601L86 601L43 601L0 601Z" fill="#f4f4f4"></path><path d="M0 242L43 238L86 227L129 216L171 262L214 207L257 262L300 215L343 260L386 243L429 236L471 243L514 258L557 280L600 266L643 196L686 218L729 192L771 206L814 281L857 204L900 199L900 601L857 601L814 601L771 601L729 601L686 601L643 601L600 601L557 601L514 601L471 601L429 601L386 601L343 601L300 601L257 601L214 601L171 601L129 601L86 601L43 601L0 601Z" fill="#efefef"></path><path d="M0 298L43 296L86 297L129 254L171 309L214 291L257 280L300 245L343 273L386 248L429 291L471 290L514 301L557 297L600 275L643 260L686 257L729 268L771 248L814 242L857 282L900 239L900 601L857 601L814 601L771 601L729 601L686 601L643 601L600 601L557 601L514 601L471 601L429 601L386 601L343 601L300 601L257 601L214 601L171 601L129 601L86 601L43 601L0 601Z" fill="#eaeaea"></path><path d="M0 350L43 313L86 346L129 342L171 283L214 287L257 296L300 324L343 290L386 308L429 315L471 358L514 301L557 278L600 350L643 321L686 354L729 325L771 321L814 291L857 358L900 309L900 601L857 601L814 601L771 601L729 601L686 601L643 601L600 601L557 601L514 601L471 601L429 601L386 601L343 601L300 601L257 601L214 601L171 601L129 601L86 601L43 601L0 601Z" fill="#e5e5e5"></path><path d="M0 395L43 370L86 361L129 322L171 358L214 318L257 318L300 360L343 383L386 369L429 334L471 337L514 358L557 382L600 395L643 354L686 377L729 352L771 394L814 384L857 331L900 349L900 601L857 601L814 601L771 601L729 601L686 601L643 601L600 601L557 601L514 601L471 601L429 601L386 601L343 601L300 601L257 601L214 601L171 601L129 601L86 601L43 601L0 601Z" fill="#dfdfdf"></path><path d="M0 410L43 426L86 412L129 431L171 412L214 392L257 415L300 374L343 403L386 365L429 385L471 421L514 406L557 396L600 430L643 422L686 400L729 375L771 363L814 418L857 364L900 367L900 601L857 601L814 601L771 601L729 601L686 601L643 601L600 601L557 601L514 601L471 601L429 601L386 601L343 601L300 601L257 601L214 601L171 601L129 601L86 601L43 601L0 601Z" fill="#dadada"></path><path d="M0 418L43 433L86 422L129 452L171 461L214 427L257 433L300 406L343 443L386 455L429 463L471 435L514 445L557 437L600 403L643 460L686 409L729 404L771 416L814 413L857 403L900 440L900 601L857 601L814 601L771 601L729 601L686 601L643 601L600 601L557 601L514 601L471 601L429 601L386 601L343 601L300 601L257 601L214 601L171 601L129 601L86 601L43 601L0 601Z" fill="#d5d5d5"></path><path d="M0 470L43 483L86 495L129 462L171 475L214 474L257 479L300 459L343 447L386 482L429 445L471 457L514 462L557 489L600 466L643 497L686 452L729 468L771 497L814 492L857 471L900 449L900 601L857 601L814 601L771 601L729 601L686 601L643 601L600 601L557 601L514 601L471 601L429 601L386 601L343 601L300 601L257 601L214 601L171 601L129 601L86 601L43 601L0 601Z" fill="#cfcfcf"></path><path d="M0 517L43 520L86 488L129 523L171 512L214 511L257 503L300 540L343 535L386 527L429 498L471 490L514 529L557 519L600 500L643 498L686 531L729 538L771 506L814 521L857 491L900 495L900 601L857 601L814 601L771 601L729 601L686 601L643 601L600 601L557 601L514 601L471 601L429 601L386 601L343 601L300 601L257 601L214 601L171 601L129 601L86 601L43 601L0 601Z" fill="#cacaca"></path><path d="M0 544L43 575L86 561L129 531L171 548L214 561L257 540L300 564L343 553L386 555L429 531L471 536L514 551L557 568L600 565L643 547L686 540L729 544L771 572L814 548L857 553L900 567L900 601L857 601L814 601L771 601L729 601L686 601L643 601L600 601L557 601L514 601L471 601L429 601L386 601L343 601L300 601L257 601L214 601L171 601L129 601L86 601L43 601L0 601Z" fill="#c5c5c5"></path></svg>