<svg id="visual" viewBox="0 0 900 600" width="900" height="600" xmlns="http://www.w3.org/2000/svg" xmlns:xlink="http://www.w3.org/1999/xlink" version="1.1"><g stroke-width="1" stroke-linejoin="bevel"><path d="M524 292L500 368L595 384Z" fill="#dedede" stroke="#dedede"></path><path d="M595 384L626 261L524 292Z" fill="#e1e1e1" stroke="#e1e1e1"></path><path d="M597 472L669 407L595 384Z" fill="#e4e4e4" stroke="#e4e4e4"></path><path d="M595 384L701 278L626 261Z" fill="#e4e4e4" stroke="#e4e4e4"></path><path d="M500 368L597 472L595 384Z" fill="#e9e9e9" stroke="#e9e9e9"></path><path d="M626 261L580 196L524 292Z" fill="#ebebeb" stroke="#ebebeb"></path><path d="M669 407L701 278L595 384Z" fill="#e4e4e4" stroke="#e4e4e4"></path><path d="M626 261L716 237L580 196Z" fill="#dfdfdf" stroke="#dfdfdf"></path><path d="M580 196L514 182L524 292Z" fill="#e8e8e8" stroke="#e8e8e8"></path><path d="M366 338L403 416L500 368Z" fill="#dedede" stroke="#dedede"></path><path d="M366 338L500 368L524 292Z" fill="#e6e6e6" stroke="#e6e6e6"></path><path d="M500 368L473 511L597 472Z" fill="#dedede" stroke="#dedede"></path><path d="M514 182L421 216L524 292Z" fill="#e8e8e8" stroke="#e8e8e8"></path><path d="M403 416L473 511L500 368Z" fill="#ebebeb" stroke="#ebebeb"></path><path d="M421 216L366 338L524 292Z" fill="#e1e1e1" stroke="#e1e1e1"></path><path d="M838 323L716 237L701 278Z" fill="#e4e4e4" stroke="#e4e4e4"></path><path d="M701 278L716 237L626 261Z" fill="#dfdfdf" stroke="#dfdfdf"></path><path d="M597 472L683 521L669 407Z" fill="#e2e2e2" stroke="#e2e2e2"></path><path d="M669 407L778 385L701 278Z" fill="#e4e4e4" stroke="#e4e4e4"></path><path d="M610 600L683 521L597 472Z" fill="#e4e4e4" stroke="#e4e4e4"></path><path d="M310 418L361 462L403 416Z" fill="#e8e8e8" stroke="#e8e8e8"></path><path d="M403 416L361 462L473 511Z" fill="#e4e4e4" stroke="#e4e4e4"></path><path d="M683 521L778 385L669 407Z" fill="#ebebeb" stroke="#ebebeb"></path><path d="M514 182L479 118L421 216Z" fill="#ebebeb" stroke="#ebebeb"></path><path d="M615 90L479 118L514 182Z" fill="#dcdcdc" stroke="#dcdcdc"></path><path d="M615 90L514 182L580 196Z" fill="#ebebeb" stroke="#ebebeb"></path><path d="M421 216L315 292L366 338Z" fill="#e8e8e8" stroke="#e8e8e8"></path><path d="M366 338L310 418L403 416Z" fill="#ebebeb" stroke="#ebebeb"></path><path d="M323 163L315 292L421 216Z" fill="#ebebeb" stroke="#ebebeb"></path><path d="M315 292L310 418L366 338Z" fill="#e9e9e9" stroke="#e9e9e9"></path><path d="M702 116L615 90L580 196Z" fill="#ebebeb" stroke="#ebebeb"></path><path d="M472 600L610 600L473 511Z" fill="#dfdfdf" stroke="#dfdfdf"></path><path d="M473 511L610 600L597 472Z" fill="#dfdfdf" stroke="#dfdfdf"></path><path d="M435 600L473 511L361 462Z" fill="#ebebeb" stroke="#ebebeb"></path><path d="M435 600L472 600L473 511Z" fill="#e6e6e6" stroke="#e6e6e6"></path><path d="M795 134L702 116L716 237Z" fill="#ededed" stroke="#ededed"></path><path d="M716 237L702 116L580 196Z" fill="#e1e1e1" stroke="#e1e1e1"></path><path d="M327 600L435 600L361 462Z" fill="#dfdfdf" stroke="#dfdfdf"></path><path d="M900 437L838 323L778 385Z" fill="#e9e9e9" stroke="#e9e9e9"></path><path d="M778 385L838 323L701 278Z" fill="#e4e4e4" stroke="#e4e4e4"></path><path d="M392 67L323 163L421 216Z" fill="#dcdcdc" stroke="#dcdcdc"></path><path d="M610 600L702 600L683 521Z" fill="#e1e1e1" stroke="#e1e1e1"></path><path d="M683 521L813 497L778 385Z" fill="#ededed" stroke="#ededed"></path><path d="M702 600L813 497L683 521Z" fill="#e4e4e4" stroke="#e4e4e4"></path><path d="M838 323L814 185L716 237Z" fill="#dedede" stroke="#dedede"></path><path d="M462 0L392 67L479 118Z" fill="#e4e4e4" stroke="#e4e4e4"></path><path d="M479 118L392 67L421 216Z" fill="#ebebeb" stroke="#ebebeb"></path><path d="M814 185L795 134L716 237Z" fill="#e4e4e4" stroke="#e4e4e4"></path><path d="M702 116L632 0L615 90Z" fill="#e9e9e9" stroke="#e9e9e9"></path><path d="M392 67L326 103L323 163Z" fill="#e4e4e4" stroke="#e4e4e4"></path><path d="M202 426L310 418L187 307Z" fill="#e1e1e1" stroke="#e1e1e1"></path><path d="M266 530L327 600L361 462Z" fill="#e4e4e4" stroke="#e4e4e4"></path><path d="M202 426L266 530L310 418Z" fill="#e9e9e9" stroke="#e9e9e9"></path><path d="M310 418L266 530L361 462Z" fill="#ededed" stroke="#ededed"></path><path d="M215 220L315 292L323 163Z" fill="#e4e4e4" stroke="#e4e4e4"></path><path d="M900 437L900 310L838 323Z" fill="#ebebeb" stroke="#ebebeb"></path><path d="M838 323L900 201L814 185Z" fill="#e8e8e8" stroke="#e8e8e8"></path><path d="M814 185L900 78L795 134Z" fill="#dfdfdf" stroke="#dfdfdf"></path><path d="M716 0L632 0L702 116Z" fill="#ededed" stroke="#ededed"></path><path d="M615 90L462 0L479 118Z" fill="#e9e9e9" stroke="#e9e9e9"></path><path d="M392 67L335 0L326 103Z" fill="#e8e8e8" stroke="#e8e8e8"></path><path d="M632 0L462 0L615 90Z" fill="#dfdfdf" stroke="#dfdfdf"></path><path d="M813 497L900 437L778 385Z" fill="#e4e4e4" stroke="#e4e4e4"></path><path d="M900 478L900 437L813 497Z" fill="#e2e2e2" stroke="#e2e2e2"></path><path d="M162 105L215 220L323 163Z" fill="#e9e9e9" stroke="#e9e9e9"></path><path d="M187 307L310 418L315 292Z" fill="#e2e2e2" stroke="#e2e2e2"></path><path d="M215 220L187 307L315 292Z" fill="#dcdcdc" stroke="#dcdcdc"></path><path d="M702 600L817 600L813 497Z" fill="#e6e6e6" stroke="#e6e6e6"></path><path d="M900 600L900 478L813 497Z" fill="#ebebeb" stroke="#ebebeb"></path><path d="M900 310L900 201L838 323Z" fill="#ebebeb" stroke="#ebebeb"></path><path d="M795 134L716 0L702 116Z" fill="#ededed" stroke="#ededed"></path><path d="M807 0L716 0L795 134Z" fill="#e6e6e6" stroke="#e6e6e6"></path><path d="M201 600L214 526L102 600Z" fill="#dcdcdc" stroke="#dcdcdc"></path><path d="M202 426L214 526L266 530Z" fill="#dedede" stroke="#dedede"></path><path d="M266 530L201 600L327 600Z" fill="#dedede" stroke="#dedede"></path><path d="M462 0L374 0L392 67Z" fill="#e2e2e2" stroke="#e2e2e2"></path><path d="M326 103L162 105L323 163Z" fill="#dfdfdf" stroke="#dfdfdf"></path><path d="M374 0L335 0L392 67Z" fill="#e4e4e4" stroke="#e4e4e4"></path><path d="M215 220L138 281L187 307Z" fill="#e8e8e8" stroke="#e8e8e8"></path><path d="M187 307L72 383L202 426Z" fill="#dfdfdf" stroke="#dfdfdf"></path><path d="M109 187L138 281L215 220Z" fill="#e1e1e1" stroke="#e1e1e1"></path><path d="M900 78L807 0L795 134Z" fill="#dcdcdc" stroke="#dcdcdc"></path><path d="M817 600L900 600L813 497Z" fill="#ededed" stroke="#ededed"></path><path d="M64 496L214 526L202 426Z" fill="#e6e6e6" stroke="#e6e6e6"></path><path d="M214 526L201 600L266 530Z" fill="#e4e4e4" stroke="#e4e4e4"></path><path d="M900 201L900 78L814 185Z" fill="#e4e4e4" stroke="#e4e4e4"></path><path d="M185 0L162 105L326 103Z" fill="#ededed" stroke="#ededed"></path><path d="M162 105L109 187L215 220Z" fill="#e4e4e4" stroke="#e4e4e4"></path><path d="M138 281L72 383L187 307Z" fill="#dcdcdc" stroke="#dcdcdc"></path><path d="M0 394L72 383L0 265Z" fill="#e6e6e6" stroke="#e6e6e6"></path><path d="M900 78L900 0L807 0Z" fill="#ededed" stroke="#ededed"></path><path d="M335 0L185 0L326 103Z" fill="#dedede" stroke="#dedede"></path><path d="M162 105L96 86L109 187Z" fill="#dedede" stroke="#dedede"></path><path d="M72 383L64 496L202 426Z" fill="#e1e1e1" stroke="#e1e1e1"></path><path d="M64 496L102 600L214 526Z" fill="#ebebeb" stroke="#ebebeb"></path><path d="M185 0L96 86L162 105Z" fill="#e2e2e2" stroke="#e2e2e2"></path><path d="M0 265L72 383L138 281Z" fill="#e2e2e2" stroke="#e2e2e2"></path><path d="M72 383L0 478L64 496Z" fill="#e4e4e4" stroke="#e4e4e4"></path><path d="M64 496L0 600L102 600Z" fill="#e1e1e1" stroke="#e1e1e1"></path><path d="M0 265L138 281L109 187Z" fill="#e4e4e4" stroke="#e4e4e4"></path><path d="M0 194L0 265L109 187Z" fill="#dcdcdc" stroke="#dcdcdc"></path><path d="M0 394L0 478L72 383Z" fill="#dfdfdf" stroke="#dfdfdf"></path><path d="M96 86L0 194L109 187Z" fill="#e8e8e8" stroke="#e8e8e8"></path><path d="M185 0L85 0L96 86Z" fill="#ededed" stroke="#ededed"></path><path d="M96 86L0 74L0 194Z" fill="#ebebeb" stroke="#ebebeb"></path><path d="M0 478L0 600L64 496Z" fill="#e2e2e2" stroke="#e2e2e2"></path><path d="M85 0L0 74L96 86Z" fill="#ededed" stroke="#ededed"></path><path d="M85 0L0 0L0 74Z" fill="#dfdfdf" stroke="#dfdfdf"></path></g></svg>