<svg id="visual" viewBox="0 0 900 600" width="900" height="600" xmlns="http://www.w3.org/2000/svg" xmlns:xlink="http://www.w3.org/1999/xlink" version="1.1"><g stroke-width="1" stroke-linejoin="bevel"><path d="M484 299L560 263L495 200Z" fill="#4b4d4d" stroke="#4b4d4d"></path><path d="M560 263L570 204L495 200Z" fill="#474848" stroke="#474848"></path><path d="M462 71L407 178L495 200Z" fill="#434343" stroke="#434343"></path><path d="M495 200L407 178L484 299Z" fill="#494a4a" stroke="#494a4a"></path><path d="M407 178L388 300L484 299Z" fill="#4d4f4f" stroke="#4d4f4f"></path><path d="M415 428L510 385L484 299Z" fill="#515454" stroke="#515454"></path><path d="M484 299L510 385L560 263Z" fill="#494a4a" stroke="#494a4a"></path><path d="M510 385L590 394L560 263Z" fill="#494a4a" stroke="#494a4a"></path><path d="M560 263L721 262L570 204Z" fill="#434343" stroke="#434343"></path><path d="M407 178L335 301L388 300Z" fill="#434343" stroke="#434343"></path><path d="M388 300L415 428L484 299Z" fill="#565959" stroke="#565959"></path><path d="M570 204L462 71L495 200Z" fill="#494a4a" stroke="#494a4a"></path><path d="M407 178L324 168L335 301Z" fill="#474848" stroke="#474848"></path><path d="M462 71L360 129L407 178Z" fill="#515454" stroke="#515454"></path><path d="M334 422L415 428L388 300Z" fill="#545657" stroke="#545657"></path><path d="M510 385L519 513L590 394Z" fill="#454545" stroke="#454545"></path><path d="M732 167L633 96L570 204Z" fill="#4f5152" stroke="#4f5152"></path><path d="M570 204L633 96L462 71Z" fill="#454545" stroke="#454545"></path><path d="M360 129L324 168L407 178Z" fill="#4d4f4f" stroke="#4d4f4f"></path><path d="M590 394L721 262L560 263Z" fill="#434343" stroke="#434343"></path><path d="M721 262L732 167L570 204Z" fill="#434343" stroke="#434343"></path><path d="M732 167L677 81L633 96Z" fill="#515454" stroke="#515454"></path><path d="M633 96L510 0L462 71Z" fill="#474848" stroke="#474848"></path><path d="M335 301L334 422L388 300Z" fill="#494a4a" stroke="#494a4a"></path><path d="M213 389L334 422L335 301Z" fill="#454545" stroke="#454545"></path><path d="M639 0L510 0L633 96Z" fill="#585b5c" stroke="#585b5c"></path><path d="M462 71L387 0L360 129Z" fill="#474848" stroke="#474848"></path><path d="M334 422L411 487L415 428Z" fill="#585b5c" stroke="#585b5c"></path><path d="M415 428L519 513L510 385Z" fill="#545657" stroke="#545657"></path><path d="M627 517L686 437L590 394Z" fill="#4b4d4d" stroke="#4b4d4d"></path><path d="M590 394L686 437L721 262Z" fill="#585b5c" stroke="#585b5c"></path><path d="M686 437L763 297L721 262Z" fill="#545657" stroke="#545657"></path><path d="M721 262L837 180L732 167Z" fill="#4f5152" stroke="#4f5152"></path><path d="M411 487L519 513L415 428Z" fill="#454545" stroke="#454545"></path><path d="M510 0L387 0L462 71Z" fill="#4f5152" stroke="#4f5152"></path><path d="M360 129L264 104L324 168Z" fill="#565959" stroke="#565959"></path><path d="M711 0L639 0L677 81Z" fill="#4b4d4d" stroke="#4b4d4d"></path><path d="M677 81L639 0L633 96Z" fill="#494a4a" stroke="#494a4a"></path><path d="M270 0L264 104L360 129Z" fill="#4d4f4f" stroke="#4d4f4f"></path><path d="M324 168L223 203L335 301Z" fill="#474848" stroke="#474848"></path><path d="M264 104L223 203L324 168Z" fill="#494a4a" stroke="#494a4a"></path><path d="M519 513L627 517L590 394Z" fill="#545657" stroke="#545657"></path><path d="M627 517L699 494L686 437Z" fill="#4d4f4f" stroke="#4d4f4f"></path><path d="M686 437L835 386L763 297Z" fill="#545657" stroke="#545657"></path><path d="M334 422L313 491L411 487Z" fill="#4b4d4d" stroke="#4b4d4d"></path><path d="M411 487L480 600L519 513Z" fill="#454545" stroke="#454545"></path><path d="M213 389L313 491L334 422Z" fill="#565959" stroke="#565959"></path><path d="M223 203L204 308L335 301Z" fill="#474848" stroke="#474848"></path><path d="M801 94L677 81L732 167Z" fill="#434343" stroke="#434343"></path><path d="M801 94L711 0L677 81Z" fill="#515454" stroke="#515454"></path><path d="M204 308L213 389L335 301Z" fill="#545657" stroke="#545657"></path><path d="M837 180L801 94L732 167Z" fill="#4f5152" stroke="#4f5152"></path><path d="M900 286L837 180L763 297Z" fill="#565959" stroke="#565959"></path><path d="M763 297L837 180L721 262Z" fill="#4b4d4d" stroke="#4b4d4d"></path><path d="M387 0L270 0L360 129Z" fill="#565959" stroke="#565959"></path><path d="M264 104L197 83L223 203Z" fill="#585b5c" stroke="#585b5c"></path><path d="M519 513L566 600L627 517Z" fill="#4b4d4d" stroke="#4b4d4d"></path><path d="M627 517L690 600L699 494Z" fill="#474848" stroke="#474848"></path><path d="M383 600L480 600L411 487Z" fill="#474848" stroke="#474848"></path><path d="M480 600L566 600L519 513Z" fill="#4b4d4d" stroke="#4b4d4d"></path><path d="M792 481L686 437L699 494Z" fill="#515454" stroke="#515454"></path><path d="M792 481L835 386L686 437Z" fill="#545657" stroke="#545657"></path><path d="M270 0L197 83L264 104Z" fill="#515454" stroke="#515454"></path><path d="M223 203L126 285L204 308Z" fill="#474848" stroke="#474848"></path><path d="M766 600L792 481L699 494Z" fill="#4b4d4d" stroke="#4b4d4d"></path><path d="M294 600L383 600L313 491Z" fill="#4f5152" stroke="#4f5152"></path><path d="M313 491L383 600L411 487Z" fill="#454545" stroke="#454545"></path><path d="M900 83L791 0L801 94Z" fill="#565959" stroke="#565959"></path><path d="M801 94L791 0L711 0Z" fill="#4b4d4d" stroke="#4b4d4d"></path><path d="M204 308L126 285L213 389Z" fill="#4b4d4d" stroke="#4b4d4d"></path><path d="M163 503L294 600L313 491Z" fill="#585b5c" stroke="#585b5c"></path><path d="M101 223L126 285L223 203Z" fill="#4b4d4d" stroke="#4b4d4d"></path><path d="M566 600L690 600L627 517Z" fill="#4b4d4d" stroke="#4b4d4d"></path><path d="M835 386L900 286L763 297Z" fill="#545657" stroke="#545657"></path><path d="M837 180L900 83L801 94Z" fill="#585b5c" stroke="#585b5c"></path><path d="M900 419L900 286L835 386Z" fill="#434343" stroke="#434343"></path><path d="M900 286L900 172L837 180Z" fill="#434343" stroke="#434343"></path><path d="M91 127L101 223L223 203Z" fill="#454545" stroke="#454545"></path><path d="M163 503L313 491L213 389Z" fill="#434343" stroke="#434343"></path><path d="M900 497L900 419L792 481Z" fill="#494a4a" stroke="#494a4a"></path><path d="M792 481L900 419L835 386Z" fill="#585b5c" stroke="#585b5c"></path><path d="M270 0L164 0L197 83Z" fill="#4f5152" stroke="#4f5152"></path><path d="M197 83L91 127L223 203Z" fill="#454545" stroke="#454545"></path><path d="M900 172L900 83L837 180Z" fill="#515454" stroke="#515454"></path><path d="M89 400L213 389L126 285Z" fill="#4f5152" stroke="#4f5152"></path><path d="M89 400L163 503L213 389Z" fill="#515454" stroke="#515454"></path><path d="M690 600L766 600L699 494Z" fill="#4f5152" stroke="#4f5152"></path><path d="M110 0L91 127L197 83Z" fill="#565959" stroke="#565959"></path><path d="M0 277L89 400L126 285Z" fill="#494a4a" stroke="#494a4a"></path><path d="M0 277L126 285L101 223Z" fill="#4d4f4f" stroke="#4d4f4f"></path><path d="M900 600L900 497L792 481Z" fill="#494a4a" stroke="#494a4a"></path><path d="M900 83L900 0L791 0Z" fill="#565959" stroke="#565959"></path><path d="M164 0L110 0L197 83Z" fill="#585b5c" stroke="#585b5c"></path><path d="M163 503L183 600L294 600Z" fill="#454545" stroke="#454545"></path><path d="M108 600L183 600L163 503Z" fill="#515454" stroke="#515454"></path><path d="M89 400L94 515L163 503Z" fill="#545657" stroke="#545657"></path><path d="M0 215L0 277L101 223Z" fill="#515454" stroke="#515454"></path><path d="M89 400L0 499L94 515Z" fill="#494a4a" stroke="#494a4a"></path><path d="M0 215L101 223L91 127Z" fill="#585b5c" stroke="#585b5c"></path><path d="M0 139L0 215L91 127Z" fill="#4b4d4d" stroke="#4b4d4d"></path><path d="M0 0L0 139L91 127Z" fill="#4d4f4f" stroke="#4d4f4f"></path><path d="M0 277L0 378L89 400Z" fill="#434343" stroke="#434343"></path><path d="M766 600L900 600L792 481Z" fill="#545657" stroke="#545657"></path><path d="M94 515L108 600L163 503Z" fill="#4f5152" stroke="#4f5152"></path><path d="M0 600L108 600L94 515Z" fill="#434343" stroke="#434343"></path><path d="M0 378L0 499L89 400Z" fill="#565959" stroke="#565959"></path><path d="M110 0L0 0L91 127Z" fill="#434343" stroke="#434343"></path><path d="M0 499L0 600L94 515Z" fill="#434343" stroke="#434343"></path></g></svg>